<?xml version="1.0" encoding="utf-8"?>
<!-- Generator: Adobe Illustrator 15.0.2, SVG Export Plug-In . SVG Version: 6.00 Build 0)  -->
<!DOCTYPE svg PUBLIC "-//W3C//DTD SVG 1.1//EN" "http://www.w3.org/Graphics/SVG/1.1/DTD/svg11.dtd">
<svg version="1.1" id="Calque_1" xmlns="http://www.w3.org/2000/svg" xmlns:xlink="http://www.w3.org/1999/xlink" x="0px" y="0px"
	 width="512px" height="512px" viewBox="0 0 512 512" enable-background="new 0 0 512 512" xml:space="preserve">
<g>
	<path fill="#F1BE41" d="M502.709,187.386c-16.049-58.799-54.221-110.898-104.604-144.37C352.975,12.615,298.055-2.34,243.95,0.297
		C167.201,3.285,92.962,43.442,48.154,106.469C13.989,153.468-3.145,212.686,0.477,270.855
		c3.206,61.682,29.923,121.721,73.463,165.092c40.527,41.588,95.668,68.148,153.058,74.459
		c52.878,5.896,107.565-4.604,154.093-30.893c54.389-30.207,97.102-81.209,117.195-140.574
		C514.969,290.447,516.416,236.822,502.709,187.386z M280.285,408.801h-27.394v-46.822h-20.4v46.822h-28.56v-47.016h-55.76
		l1.554-29.725h21.76c0,0,11.074,0.193,11.074-14.377s0-129.778,0-129.778s1.166-9.326-14.765-9.326c-15.933,0-21.566,0-21.566,0
		v-29.143h57.702v-46.239h28.561v46.239h20.206v-46.239h27.588v46.239c0,0,27.783,1.749,45.852,12.823
		c18.068,11.073,25.258,22.536,25.258,40.993c0,18.456-9.52,31.474-24.48,41.575c0,0,38.857,9.909,38.857,51.291
		c0,41.381-23.314,65.859-85.486,65.859V408.801z"/>
	<path fill="#F1BE41" d="M296.703,207.575c0-27.685-37.594-27.248-37.594-27.248h-26.667v57.701h37.886
		C270.328,238.028,296.703,235.261,296.703,207.575z"/>
	<path fill="#F1BE41" d="M271.566,266.879h-39.124v62.363h37.741c0,0,40.508-0.436,40.508-34.678
		C310.691,294.564,313.314,267.17,271.566,266.879z"/>
</g>
</svg>
