<?xml version="1.0" encoding="utf-8"?>
<!-- Generator: Adobe Illustrator 15.0.2, SVG Export Plug-In . SVG Version: 6.00 Build 0)  -->
<!DOCTYPE svg PUBLIC "-//W3C//DTD SVG 1.1//EN" "http://www.w3.org/Graphics/SVG/1.1/DTD/svg11.dtd">
<svg version="1.1" id="Calque_1" xmlns="http://www.w3.org/2000/svg" xmlns:xlink="http://www.w3.org/1999/xlink" x="0px" y="0px"
	 width="512px" height="512px" viewBox="0 0 512 512" enable-background="new 0 0 512 512" xml:space="preserve">
<g>
	<path fill="#F1BE41" d="M502.709,187.385C486.66,128.586,448.488,76.488,398.105,43.016C352.975,12.615,298.055-2.34,243.95,0.297
		C167.201,3.285,92.962,43.442,48.154,106.468C13.989,153.467-3.145,212.685,0.477,270.855
		c3.206,61.682,29.923,121.721,73.463,165.092c40.527,41.588,95.668,68.148,153.058,74.459
		c52.878,5.896,107.565-4.604,154.093-30.893c54.389-30.207,97.102-81.209,117.195-140.574
		C514.969,290.447,516.416,236.822,502.709,187.385z M476.773,331.574c-18.311,54.096-57.23,100.568-106.791,128.094
		c-42.396,23.955-92.229,33.523-140.41,28.148c-52.295-5.75-102.539-29.951-139.468-67.846
		c-39.674-39.52-64.019-94.229-66.94-150.434c-3.299-53.006,12.313-106.966,43.445-149.791
		c40.828-57.431,108.477-94.022,178.41-96.744c49.301-2.404,99.344,11.223,140.469,38.925c45.908,30.5,80.691,77.974,95.316,131.552
		C493.293,238.524,491.975,287.388,476.773,331.574z"/>
	<path fill="#F1BE41" d="M296.703,207.575c0-27.685-37.594-27.248-37.594-27.248h-26.667v57.701h37.886
		C270.328,238.028,296.703,235.26,296.703,207.575z"/>
	<path fill="#F1BE41" d="M271.566,266.878h-39.124v62.363h37.741c0,0,40.508-0.436,40.508-34.678
		C310.691,294.564,313.314,267.169,271.566,266.878z"/>
	<path fill="#F1BE41" d="M358.313,102.658c-32.494-21.888-72.033-32.655-110.988-30.756c-55.256,2.151-108.707,31.063-140.967,76.44
		c-24.598,33.837-36.934,76.472-34.326,118.353c2.309,44.41,21.543,87.637,52.891,118.861
		c29.179,29.941,68.878,49.064,110.197,53.607c38.068,4.246,77.443-3.314,110.941-22.242
		c39.158-21.748,69.912-58.467,84.377-101.209c12.012-34.912,13.055-73.521,3.186-109.113
		C422.068,164.266,394.584,126.756,358.313,102.658z M280.285,361.978V408.8h-27.394v-46.822h-20.4V408.8h-28.56v-47.016h-55.76
		l1.554-29.725h21.76c0,0,11.074,0.193,11.074-14.377s0-129.778,0-129.778s1.166-9.326-14.765-9.326c-15.933,0-21.566,0-21.566,0
		v-29.143h57.702v-46.238h28.561v46.238h20.206v-46.238h27.588v46.238c0,0,27.783,1.749,45.852,12.823
		c18.068,11.073,25.258,22.536,25.258,40.993c0,18.456-9.52,31.474-24.48,41.575c0,0,38.857,9.909,38.857,51.291
		C365.771,337.5,342.457,361.978,280.285,361.978z"/>
</g>
</svg>
