<?xml version="1.0" encoding="utf-8"?>
<!-- Generator: Adobe Illustrator 15.0.2, SVG Export Plug-In . SVG Version: 6.00 Build 0)  -->
<!DOCTYPE svg PUBLIC "-//W3C//DTD SVG 1.1//EN" "http://www.w3.org/Graphics/SVG/1.1/DTD/svg11.dtd">
<svg version="1.1" id="Calque_1" xmlns="http://www.w3.org/2000/svg" xmlns:xlink="http://www.w3.org/1999/xlink" x="0px" y="0px"
	 width="512px" height="512px" viewBox="0 0 512 512" enable-background="new 0 0 512 512" xml:space="preserve">
<g>
	<path fill="#F1BE41" d="M465.398,43.918c14.06,14.064,25.153,30.75,33.27,50.063c8.126,19.317,12.458,39.554,13,60.708
		c0.552,21.162-3.066,42.324-10.842,63.478c-7.784,21.162-20.479,40.546-38.088,58.152c-28.396,28.388-59.002,46.584-91.838,54.565
		c-32.822,7.984-65.822,6.038-98.99-5.834l-54.876,54.872l-31.33-0.208l-23.746,23.754l0.206,31.325l-15.762,15.773l-31.332-0.208
		l-7.58,7.574l-0.204,31.738L91.52,505.44c-13.79,2.588-26.692,4.43-38.698,5.526c-5.056,0.405-10.136,0.718-15.254,0.92
		c-5.118,0.208-9.894,0.136-14.336-0.202c-4.432-0.342-8.392-0.962-11.872-1.851c-3.478-0.886-6.112-2.22-7.888-3.983
		c-2.32-2.328-3.374-6.45-3.174-12.39c0.208-5.944,1.306-12.769,3.28-20.477c1.978-7.71,4.608-15.938,7.88-24.674
		c3.276-8.734,6.792-17.028,10.548-24.876c3.754-7.853,7.436-14.883,11.058-21.091c3.616-6.21,6.79-10.676,9.518-13.407
		L191.64,239.87c-4.774-16.244-7.648-32.56-8.594-48.934c-0.96-16.376,0.266-32.557,3.686-48.521
		c3.406-15.972,9.282-31.609,17.604-46.89c8.326-15.286,19.518-29.968,33.58-44.022c17.608-17.615,36.718-30.576,57.328-38.905
		c20.62-8.322,41.193-12.521,61.74-12.593c20.54-0.063,40.189,3.688,58.96,11.259C434.716,18.83,451.208,29.726,465.398,43.918z
		 M440.216,242.32c11.052-11.05,19.586-23.678,25.594-37.876c6.002-14.196,9.11-28.97,9.314-44.326
		c0.204-15.355-2.732-30.646-8.802-45.868c-6.076-15.218-15.668-29.378-28.771-42.492c-12.97-12.96-26.824-22.239-41.562-27.842
		c-14.746-5.598-29.488-7.981-44.229-7.158c-14.742,0.814-28.976,4.469-42.684,10.948c-13.73,6.482-26.105,15.252-37.168,26.313
		L440.216,242.32z M229.53,284.71l-14.538-14.533L62.86,422.306l-7.166,23.952l21.704-9.414L229.53,284.71z"/>
</g>
</svg>
