<?xml version="1.0" encoding="utf-8"?>
<!-- Generator: Adobe Illustrator 15.0.2, SVG Export Plug-In . SVG Version: 6.00 Build 0)  -->
<!DOCTYPE svg PUBLIC "-//W3C//DTD SVG 1.1//EN" "http://www.w3.org/Graphics/SVG/1.1/DTD/svg11.dtd">
<svg version="1.1" id="Calque_1" xmlns="http://www.w3.org/2000/svg" xmlns:xlink="http://www.w3.org/1999/xlink" x="0px" y="0px"
	 width="36px" height="576px" viewBox="0 0 36 576" enable-background="new 0 0 36 576" xml:space="preserve">
<g>
	<rect y="0" fill="#231F20" fill-opacity="0" width="36" height="576"/>
	<g>
		<g>
			<path fill="#607D8B" d="M30.579,4c0.784,0,1.422,0.637,1.422,1.421v25.157c0,0.783-0.638,1.422-1.422,1.422H5.423
				c-0.783,0-1.422-0.639-1.422-1.422V5.421C4.001,4.637,4.64,4,5.423,4H30.579 M30.579,2H5.423C3.541,2,2.001,3.539,2.001,5.421
				v25.157C2.001,32.46,3.541,34,5.423,34h25.156c1.882,0,3.422-1.54,3.422-3.422V5.421C34.001,3.539,32.461,2,30.579,2L30.579,2z"
				/>
		</g>
	</g>
	<g>
		<g>
			<path fill="#607D8B" d="M26.647,8.999c0.191,0,0.354,0.161,0.354,0.352v17.297c0,0.191-0.162,0.354-0.354,0.354H9.353
				C9.164,27.001,9,26.836,9,26.648V9.351c0-0.188,0.164-0.352,0.353-0.352H26.647 M26.647,6.999H9.353C8.06,6.999,7,8.058,7,9.351
				v17.297c0,1.293,1.06,2.354,2.353,2.354h17.295c1.296,0,2.354-1.061,2.354-2.354V9.351C29.001,8.057,27.943,6.999,26.647,6.999
				L26.647,6.999z"/>
		</g>
	</g>
	<g>
		<g>
			<path fill="#607D8B" d="M18.022,16.078c1.062,0,1.925,0.862,1.925,1.925c0,1.062-0.863,1.925-1.925,1.925
				s-1.924-0.863-1.924-1.925C16.099,16.941,16.962,16.078,18.022,16.078 M18.022,14.078c-2.166,0-3.924,1.757-3.924,3.925
				c0,2.167,1.758,3.925,3.924,3.925c2.168,0,3.925-1.758,3.925-3.925C21.947,15.835,20.19,14.078,18.022,14.078L18.022,14.078z"/>
		</g>
		<g>
			
				<line fill="none" stroke="#607D8B" stroke-width="2" stroke-linecap="round" stroke-miterlimit="10" x1="18.022" y1="14.883" x2="18.022" y2="11.511"/>
		</g>
		<g>
			
				<line fill="none" stroke="#607D8B" stroke-width="2" stroke-linecap="round" stroke-miterlimit="10" x1="21.066" y1="18.003" x2="24.437" y2="18.003"/>
		</g>
		<g>
			
				<line fill="none" stroke="#607D8B" stroke-width="2" stroke-linecap="round" stroke-miterlimit="10" x1="14.935" y1="18.003" x2="11.563" y2="18.003"/>
		</g>
	</g>
	<g>
		<g>
			<path fill="#607D8B" d="M30.579,40c0.784,0,1.422,0.637,1.422,1.42v25.158c0,0.771-0.65,1.422-1.422,1.422H5.423
				c-0.771,0-1.422-0.651-1.422-1.422V41.42c0-0.783,0.639-1.42,1.422-1.42H30.579 M30.579,38H5.423
				c-1.882,0-3.422,1.539-3.422,3.42v25.158c0,1.881,1.54,3.422,3.422,3.422h25.156c1.882,0,3.422-1.541,3.422-3.422V41.42
				C34.001,39.539,32.461,38,30.579,38L30.579,38z"/>
		</g>
	</g>
	<g>
		<g>
			<path fill="#607D8B" d="M26.648,44.999c0.188,0,0.353,0.164,0.353,0.352v17.298c0,0.188-0.165,0.354-0.353,0.354H9.353
				C9.164,63.002,9,62.837,9,62.649V45.351c0-0.188,0.164-0.352,0.353-0.352H26.648 M26.648,42.999H9.353
				C8.06,42.999,7,44.058,7,45.351v17.298c0,1.293,1.058,2.354,2.353,2.354h17.296c1.294,0,2.353-1.061,2.353-2.354V45.351
				C29.001,44.058,27.942,42.999,26.648,42.999L26.648,42.999z"/>
		</g>
	</g>
	<g>
		<g>
			<path fill="#607D8B" d="M18.022,52.078c1.062,0,1.925,0.862,1.925,1.924s-0.863,1.926-1.925,1.926s-1.924-0.864-1.924-1.926
				C16.099,52.942,16.962,52.078,18.022,52.078 M18.022,50.078c-2.166,0-3.924,1.758-3.924,3.924c0,2.168,1.758,3.926,3.924,3.926
				c2.168,0,3.925-1.758,3.925-3.926C21.947,51.836,20.19,50.078,18.022,50.078L18.022,50.078z"/>
		</g>
	</g>
	<g>
		
			<line fill="none" stroke="#607D8B" stroke-width="2" stroke-linecap="round" stroke-miterlimit="10" x1="19.228" y1="51.143" x2="20.517" y2="48.03"/>
	</g>
	<g>
		
			<line fill="none" stroke="#607D8B" stroke-width="2" stroke-linecap="round" stroke-miterlimit="10" x1="20.847" y1="55.192" x2="23.959" y2="56.481"/>
	</g>
	<g>
		
			<line fill="none" stroke="#607D8B" stroke-width="2" stroke-linecap="round" stroke-miterlimit="10" x1="15.181" y1="52.844" x2="12.067" y2="51.555"/>
	</g>
	<g>
		<g>
			<path fill="#607D8B" d="M30.579,76c0.771,0,1.422,0.649,1.422,1.42v25.157c0,0.771-0.65,1.423-1.422,1.423H5.423
				c-0.771,0-1.422-0.651-1.422-1.423V77.42c0-0.771,0.651-1.42,1.422-1.42H30.579 M30.579,74H5.423
				c-1.882,0-3.422,1.539-3.422,3.42v25.157c0,1.882,1.54,3.423,3.422,3.423h25.156c1.882,0,3.422-1.541,3.422-3.423V77.42
				C34.001,75.539,32.461,74,30.579,74L30.579,74z"/>
		</g>
	</g>
	<g>
		<g>
			<path fill="#607D8B" d="M26.648,80.998c0.188,0,0.353,0.164,0.353,0.352v17.297c0,0.188-0.165,0.354-0.353,0.354H9.353
				C9.164,99.001,9,98.835,9,98.647V81.35c0-0.188,0.164-0.352,0.353-0.352H26.648 M26.648,78.999H9.353
				C8.06,78.999,7,80.057,7,81.35v17.297c0,1.295,1.058,2.354,2.353,2.354h17.296c1.294,0,2.353-1.061,2.353-2.354V81.35
				C29.001,80.057,27.942,78.999,26.648,78.999L26.648,78.999z"/>
		</g>
	</g>
	<g>
		<g>
			<path fill="#607D8B" d="M18.022,88.077c1.062,0,1.925,0.863,1.925,1.925s-0.863,1.926-1.925,1.926s-1.924-0.864-1.924-1.926
				C16.099,88.942,16.962,88.077,18.022,88.077 M18.022,86.077c-2.166,0-3.924,1.757-3.924,3.925s1.758,3.926,3.924,3.926
				c2.168,0,3.925-1.758,3.925-3.926S20.19,86.077,18.022,86.077L18.022,86.077z"/>
		</g>
	</g>
	<g>
		
			<line fill="none" stroke="#607D8B" stroke-width="2" stroke-linecap="round" stroke-miterlimit="10" x1="20.232" y1="87.825" x2="22.614" y2="85.444"/>
	</g>
	<g>
		
			<line fill="none" stroke="#607D8B" stroke-width="2" stroke-linecap="round" stroke-miterlimit="10" x1="20.177" y1="92.184" x2="22.562" y2="94.569"/>
	</g>
	<g>
		
			<line fill="none" stroke="#607D8B" stroke-width="2" stroke-linecap="round" stroke-miterlimit="10" x1="15.843" y1="87.85" x2="13.458" y2="85.465"/>
	</g>
	<g>
		<g>
			<path fill="#607D8B" d="M30.579,112c0.771,0,1.422,0.649,1.422,1.42v25.157c0,0.771-0.65,1.423-1.422,1.423H5.423
				c-0.771,0-1.422-0.651-1.422-1.423V113.42c0-0.771,0.651-1.42,1.422-1.42H30.579 M30.579,110H5.423
				c-1.882,0-3.422,1.538-3.422,3.42v25.157c0,1.882,1.54,3.423,3.422,3.423h25.156c1.882,0,3.422-1.541,3.422-3.423V113.42
				C34.001,111.538,32.461,110,30.579,110L30.579,110z"/>
		</g>
	</g>
	<g>
		<g>
			<path fill="#607D8B" d="M26.648,116.998c0.188,0,0.353,0.164,0.353,0.352v17.297c0,0.188-0.165,0.354-0.353,0.354H9.353
				c-0.188,0-0.353-0.166-0.353-0.354V117.35c0-0.188,0.164-0.352,0.353-0.352H26.648 M26.648,114.998H9.353
				C8.06,114.998,7,116.057,7,117.35v17.297c0,1.295,1.058,2.354,2.353,2.354h17.296c1.294,0,2.353-1.061,2.353-2.354V117.35
				C29.001,116.057,27.942,114.998,26.648,114.998L26.648,114.998z"/>
		</g>
	</g>
	<g>
		<g>
			<path fill="#607D8B" d="M18.022,124.077c1.062,0,1.925,0.863,1.925,1.925s-0.863,1.926-1.925,1.926s-1.924-0.864-1.924-1.926
				C16.099,124.942,16.962,124.077,18.022,124.077 M18.022,122.077c-2.166,0-3.924,1.757-3.924,3.925s1.758,3.926,3.924,3.926
				c2.168,0,3.925-1.758,3.925-3.926S20.19,122.077,18.022,122.077L18.022,122.077z"/>
		</g>
	</g>
	<g>
		
			<line fill="none" stroke="#607D8B" stroke-width="2" stroke-linecap="round" stroke-miterlimit="10" x1="20.897" y1="124.84" x2="24.013" y2="123.551"/>
	</g>
	<g>
		
			<line fill="none" stroke="#607D8B" stroke-width="2" stroke-linecap="round" stroke-miterlimit="10" x1="19.181" y1="128.846" x2="20.472" y2="131.959"/>
	</g>
	<g>
		
			<line fill="none" stroke="#607D8B" stroke-width="2" stroke-linecap="round" stroke-miterlimit="10" x1="16.834" y1="123.182" x2="15.546" y2="120.067"/>
	</g>
	<g>
		<g>
			<path fill="#607D8B" d="M30.579,148c0.771,0,1.422,0.649,1.422,1.42v25.157c0,0.784-0.638,1.423-1.422,1.423H5.423
				c-0.783,0-1.422-0.639-1.422-1.423V149.42c0-0.771,0.651-1.42,1.422-1.42H30.579 M30.579,146H5.423
				c-1.882,0-3.422,1.538-3.422,3.42v25.157c0,1.884,1.54,3.423,3.422,3.423h25.156c1.882,0,3.422-1.539,3.422-3.423V149.42
				C34.001,147.538,32.461,146,30.579,146L30.579,146z"/>
		</g>
	</g>
	<g>
		<g>
			<path fill="#607D8B" d="M26.648,152.998c0.188,0,0.353,0.164,0.353,0.352v17.299c0,0.188-0.165,0.354-0.353,0.354H9.353
				c-0.188,0-0.353-0.165-0.353-0.354V153.35c0-0.188,0.164-0.352,0.353-0.352H26.648 M26.648,150.998H9.353
				C8.06,150.998,7,152.057,7,153.35v17.299c0,1.293,1.058,2.354,2.353,2.354h17.296c1.294,0,2.353-1.061,2.353-2.354V153.35
				C29.001,152.057,27.942,150.998,26.648,150.998L26.648,150.998z"/>
		</g>
	</g>
	<g>
		<g>
			<path fill="#607D8B" d="M18.022,160.077c1.062,0,1.925,0.863,1.925,1.925s-0.863,1.926-1.925,1.926s-1.924-0.864-1.924-1.926
				C16.099,160.942,16.962,160.077,18.022,160.077 M18.022,158.077c-2.166,0-3.924,1.759-3.924,3.925
				c0,2.168,1.758,3.926,3.924,3.926c2.168,0,3.925-1.758,3.925-3.926C21.947,159.836,20.19,158.077,18.022,158.077L18.022,158.077z
				"/>
		</g>
	</g>
	<g>
		
			<line fill="none" stroke="#607D8B" stroke-width="2" stroke-linecap="round" stroke-miterlimit="10" x1="21.12" y1="162.024" x2="24.491" y2="162.024"/>
	</g>
	<g>
		
			<line fill="none" stroke="#607D8B" stroke-width="2" stroke-linecap="round" stroke-miterlimit="10" x1="18.001" y1="165.069" x2="18.001" y2="168.44"/>
	</g>
	<g>
		
			<line fill="none" stroke="#607D8B" stroke-width="2" stroke-linecap="round" stroke-miterlimit="10" x1="18.001" y1="158.938" x2="18.001" y2="155.567"/>
	</g>
	<g>
		<g>
			<path fill="#607D8B" d="M30.579,184c0.771,0,1.422,0.649,1.422,1.42v25.157c0,0.771-0.65,1.423-1.422,1.423H5.423
				c-0.771,0-1.422-0.651-1.422-1.423V185.42c0-0.771,0.651-1.42,1.422-1.42H30.579 M30.579,182H5.423
				c-1.882,0-3.422,1.538-3.422,3.42v25.157c0,1.882,1.54,3.423,3.422,3.423h25.156c1.882,0,3.422-1.541,3.422-3.423V185.42
				C34.001,183.538,32.461,182,30.579,182L30.579,182z"/>
		</g>
	</g>
	<g>
		<g>
			<path fill="#607D8B" d="M26.648,188.998c0.188,0,0.353,0.165,0.353,0.354v17.295c0,0.191-0.16,0.354-0.353,0.354H9.353
				C9.162,207,9,206.839,9,206.647v-17.295c0-0.188,0.164-0.354,0.353-0.354H26.648 M26.648,186.998H9.353
				c-1.293,0-2.353,1.061-2.353,2.354v17.295C7,207.942,8.058,209,9.353,209h17.296c1.294,0,2.353-1.059,2.353-2.354v-17.295
				C29.001,188.059,27.942,186.998,26.648,186.998L26.648,186.998z"/>
		</g>
	</g>
	<g>
		<g>
			<path fill="#607D8B" d="M18.022,196.077c1.062,0,1.925,0.863,1.925,1.925c0,1.061-0.863,1.924-1.925,1.924
				s-1.924-0.863-1.924-1.924C16.099,196.941,16.962,196.077,18.022,196.077 M18.022,194.077c-2.166,0-3.924,1.757-3.924,3.925
				s1.758,3.924,3.924,3.924c2.168,0,3.925-1.756,3.925-3.924S20.19,194.077,18.022,194.077L18.022,194.077z"/>
		</g>
	</g>
	<g>
		
			<line fill="none" stroke="#607D8B" stroke-width="2" stroke-linecap="round" stroke-miterlimit="10" x1="20.876" y1="199.211" x2="23.989" y2="200.502"/>
	</g>
	<g>
		
			<line fill="none" stroke="#607D8B" stroke-width="2" stroke-linecap="round" stroke-miterlimit="10" x1="16.829" y1="200.829" x2="15.539" y2="203.946"/>
	</g>
	<g>
		
			<line fill="none" stroke="#607D8B" stroke-width="2" stroke-linecap="round" stroke-miterlimit="10" x1="19.175" y1="195.165" x2="20.466" y2="192.051"/>
	</g>
	<g>
		<g>
			<path fill="#607D8B" d="M30.579,220c0.784,0,1.422,0.638,1.422,1.422v25.155c0,0.771-0.65,1.423-1.422,1.423H5.423
				c-0.771,0-1.422-0.651-1.422-1.423v-25.155c0-0.784,0.639-1.422,1.422-1.422H30.579 M30.579,218H5.423
				c-1.882,0-3.422,1.538-3.422,3.422v25.155c0,1.882,1.54,3.423,3.422,3.423h25.156c1.882,0,3.422-1.541,3.422-3.423v-25.155
				C34.001,219.538,32.461,218,30.579,218L30.579,218z"/>
		</g>
	</g>
	<g>
		<g>
			<path fill="#607D8B" d="M26.648,224.998c0.188,0,0.353,0.165,0.353,0.354v17.295c0,0.191-0.16,0.354-0.353,0.354H9.353
				C9.162,243,9,242.839,9,242.647v-17.295c0-0.188,0.164-0.354,0.353-0.354H26.648 M26.648,222.998H9.353
				c-1.293,0-2.353,1.061-2.353,2.354v17.295C7,243.942,8.058,245,9.353,245h17.296c1.294,0,2.353-1.059,2.353-2.354v-17.295
				C29.001,224.059,27.942,222.998,26.648,222.998L26.648,222.998z"/>
		</g>
	</g>
	<g>
		<g>
			<path fill="#607D8B" d="M18.022,232.077c1.062,0,1.925,0.863,1.925,1.925c0,1.061-0.863,1.924-1.925,1.924
				s-1.924-0.863-1.924-1.924C16.099,232.941,16.962,232.077,18.022,232.077 M18.022,230.077c-2.166,0-3.924,1.757-3.924,3.925
				s1.758,3.924,3.924,3.924c2.168,0,3.925-1.756,3.925-3.924S20.19,230.077,18.022,230.077L18.022,230.077z"/>
		</g>
	</g>
	<g>
		
			<line fill="none" stroke="#607D8B" stroke-width="2" stroke-linecap="round" stroke-miterlimit="10" x1="20.195" y1="236.217" x2="22.579" y2="238.6"/>
	</g>
	<g>
		
			<line fill="none" stroke="#607D8B" stroke-width="2" stroke-linecap="round" stroke-miterlimit="10" x1="15.836" y1="236.161" x2="13.454" y2="238.547"/>
	</g>
	<g>
		
			<line fill="none" stroke="#607D8B" stroke-width="2" stroke-linecap="round" stroke-miterlimit="10" x1="20.173" y1="231.827" x2="22.556" y2="229.444"/>
	</g>
	<g>
		<g>
			<path fill="#607D8B" d="M30.579,256c0.784,0,1.422,0.638,1.422,1.422v25.155c0,0.771-0.65,1.423-1.422,1.423H5.423
				c-0.771,0-1.422-0.651-1.422-1.423v-25.155c0-0.784,0.639-1.422,1.422-1.422H30.579 M30.579,254H5.423
				c-1.882,0-3.422,1.538-3.422,3.422v25.155c0,1.882,1.54,3.423,3.422,3.423h25.156c1.882,0,3.422-1.541,3.422-3.423v-25.155
				C34.001,255.538,32.461,254,30.579,254L30.579,254z"/>
		</g>
	</g>
	<g>
		<g>
			<path fill="#607D8B" d="M26.648,260.998c0.188,0,0.353,0.165,0.353,0.354v17.295c0,0.191-0.16,0.354-0.353,0.354H9.353
				C9.162,279,9,278.839,9,278.647v-17.295c0-0.188,0.164-0.354,0.353-0.354H26.648 M26.648,258.998H9.353
				c-1.293,0-2.353,1.061-2.353,2.354v17.295C7,279.942,8.058,281,9.353,281h17.296c1.294,0,2.353-1.059,2.353-2.354v-17.295
				C29.001,260.059,27.942,258.998,26.648,258.998L26.648,258.998z"/>
		</g>
	</g>
	<g>
		<g>
			<path fill="#607D8B" d="M18.022,268.077c1.062,0,1.925,0.863,1.925,1.925c0,1.061-0.863,1.924-1.925,1.924
				s-1.924-0.863-1.924-1.924C16.099,268.941,16.962,268.077,18.022,268.077 M18.022,266.077c-2.166,0-3.924,1.757-3.924,3.925
				s1.758,3.924,3.924,3.924c2.168,0,3.925-1.756,3.925-3.924S20.19,266.077,18.022,266.077L18.022,266.077z"/>
		</g>
	</g>
	<g>
		
			<line fill="none" stroke="#607D8B" stroke-width="2" stroke-linecap="round" stroke-miterlimit="10" x1="19.181" y1="272.883" x2="20.472" y2="275.997"/>
	</g>
	<g>
		
			<line fill="none" stroke="#607D8B" stroke-width="2" stroke-linecap="round" stroke-miterlimit="10" x1="15.175" y1="271.165" x2="12.06" y2="272.454"/>
	</g>
	<g>
		
			<line fill="none" stroke="#607D8B" stroke-width="2" stroke-linecap="round" stroke-miterlimit="10" x1="20.841" y1="268.821" x2="23.954" y2="267.53"/>
	</g>
	<g>
		<g>
			<path fill="#607D8B" d="M30.579,292c0.784,0,1.422,0.638,1.422,1.422v25.155c0,0.771-0.65,1.423-1.422,1.423H5.423
				c-0.771,0-1.422-0.651-1.422-1.423v-25.155c0-0.784,0.639-1.422,1.422-1.422H30.579 M30.579,290H5.423
				c-1.882,0-3.422,1.538-3.422,3.422v25.155c0,1.882,1.54,3.423,3.422,3.423h25.156c1.882,0,3.422-1.541,3.422-3.423v-25.155
				C34.001,291.538,32.461,290,30.579,290L30.579,290z"/>
		</g>
	</g>
	<g>
		<g>
			<path fill="#607D8B" d="M26.648,296.998c0.188,0,0.353,0.165,0.353,0.354v17.295c0,0.191-0.16,0.354-0.353,0.354H9.353
				C9.162,315,9,314.839,9,314.647v-17.295c0-0.188,0.164-0.354,0.353-0.354H26.648 M26.648,294.998H9.353
				c-1.293,0-2.353,1.061-2.353,2.354v17.295C7,315.942,8.058,317,9.353,317h17.296c1.294,0,2.353-1.059,2.353-2.354v-17.295
				C29.001,296.059,27.942,294.998,26.648,294.998L26.648,294.998z"/>
		</g>
	</g>
	<g>
		<g>
			<path fill="#607D8B" d="M18.022,304.077c1.062,0,1.925,0.863,1.925,1.925c0,1.061-0.863,1.924-1.925,1.924
				s-1.924-0.863-1.924-1.924C16.099,304.941,16.962,304.077,18.022,304.077 M18.022,302.077c-2.166,0-3.924,1.757-3.924,3.925
				s1.758,3.924,3.924,3.924c2.168,0,3.925-1.756,3.925-3.924S20.19,302.077,18.022,302.077L18.022,302.077z"/>
		</g>
	</g>
	<g>
		
			<line fill="none" stroke="#607D8B" stroke-width="2" stroke-linecap="round" stroke-miterlimit="10" x1="17.989" y1="309.112" x2="17.989" y2="312.483"/>
	</g>
	<g>
		
			<line fill="none" stroke="#607D8B" stroke-width="2" stroke-linecap="round" stroke-miterlimit="10" x1="14.946" y1="305.99" x2="11.575" y2="305.99"/>
	</g>
	<g>
		
			<line fill="none" stroke="#607D8B" stroke-width="2" stroke-linecap="round" stroke-miterlimit="10" x1="21.078" y1="305.99" x2="24.449" y2="305.99"/>
	</g>
	<g>
		<g>
			<path fill="#607D8B" d="M30.579,328c0.784,0,1.422,0.638,1.422,1.422v25.155c0,0.771-0.65,1.423-1.422,1.423H5.423
				c-0.771,0-1.422-0.651-1.422-1.423v-25.155c0-0.784,0.639-1.422,1.422-1.422H30.579 M30.579,326H5.423
				c-1.882,0-3.422,1.538-3.422,3.422v25.155c0,1.882,1.54,3.423,3.422,3.423h25.156c1.882,0,3.422-1.541,3.422-3.423v-25.155
				C34.001,327.538,32.461,326,30.579,326L30.579,326z"/>
		</g>
	</g>
	<g>
		<g>
			<path fill="#607D8B" d="M26.648,332.998c0.188,0,0.353,0.165,0.353,0.354v17.295c0,0.191-0.16,0.354-0.353,0.354H9.353
				C9.162,351,9,350.839,9,350.647v-17.295c0-0.188,0.164-0.354,0.353-0.354H26.648 M26.648,330.998H9.353
				c-1.293,0-2.353,1.061-2.353,2.354v17.295C7,351.942,8.058,353,9.353,353h17.296c1.294,0,2.353-1.059,2.353-2.354v-17.295
				C29.001,332.059,27.942,330.998,26.648,330.998L26.648,330.998z"/>
		</g>
	</g>
	<g>
		<g>
			<path fill="#607D8B" d="M18.022,340.077c1.062,0,1.925,0.863,1.925,1.925c0,1.061-0.863,1.924-1.925,1.924
				s-1.924-0.863-1.924-1.924C16.099,340.941,16.962,340.077,18.022,340.077 M18.022,338.077c-2.166,0-3.924,1.757-3.924,3.925
				s1.758,3.924,3.924,3.924c2.168,0,3.925-1.756,3.925-3.924S20.19,338.077,18.022,338.077L18.022,338.077z"/>
		</g>
	</g>
	<g>
		
			<line fill="none" stroke="#607D8B" stroke-width="2" stroke-linecap="round" stroke-miterlimit="10" x1="16.802" y1="344.865" x2="15.513" y2="347.981"/>
	</g>
	<g>
		
			<line fill="none" stroke="#607D8B" stroke-width="2" stroke-linecap="round" stroke-miterlimit="10" x1="15.183" y1="340.821" x2="12.069" y2="339.53"/>
	</g>
	<g>
		
			<line fill="none" stroke="#607D8B" stroke-width="2" stroke-linecap="round" stroke-miterlimit="10" x1="20.849" y1="343.166" x2="23.962" y2="344.454"/>
	</g>
	<g>
		<g>
			<path fill="#607D8B" d="M30.579,364c0.784,0,1.422,0.638,1.422,1.422v25.155c0,0.771-0.65,1.423-1.422,1.423H5.423
				c-0.771,0-1.422-0.651-1.422-1.423v-25.155c0-0.784,0.639-1.422,1.422-1.422H30.579 M30.579,362H5.423
				c-1.882,0-3.422,1.538-3.422,3.422v25.155c0,1.882,1.54,3.423,3.422,3.423h25.156c1.882,0,3.422-1.541,3.422-3.423v-25.155
				C34.001,363.538,32.461,362,30.579,362L30.579,362z"/>
		</g>
	</g>
	<g>
		<g>
			<path fill="#607D8B" d="M26.648,368.998c0.188,0,0.353,0.165,0.353,0.354v17.295c0,0.191-0.16,0.354-0.353,0.354H9.353
				C9.162,387,9,386.839,9,386.647v-17.295c0-0.188,0.164-0.354,0.353-0.354H26.648 M26.648,366.998H9.353
				c-1.293,0-2.353,1.061-2.353,2.354v17.295C7,387.942,8.058,389,9.353,389h17.296c1.294,0,2.353-1.059,2.353-2.354v-17.295
				C29.001,368.059,27.942,366.998,26.648,366.998L26.648,366.998z"/>
		</g>
	</g>
	<g>
		<g>
			<path fill="#607D8B" d="M18.022,376.077c1.062,0,1.925,0.863,1.925,1.925c0,1.061-0.863,1.924-1.925,1.924
				s-1.924-0.863-1.924-1.924C16.099,376.941,16.962,376.077,18.022,376.077 M18.022,374.077c-2.166,0-3.924,1.757-3.924,3.925
				s1.758,3.924,3.924,3.924c2.168,0,3.925-1.756,3.925-3.924S20.19,374.077,18.022,374.077L18.022,374.077z"/>
		</g>
	</g>
	<g>
		
			<line fill="none" stroke="#607D8B" stroke-width="2" stroke-linecap="round" stroke-miterlimit="10" x1="15.798" y1="380.186" x2="13.415" y2="382.571"/>
	</g>
	<g>
		
			<line fill="none" stroke="#607D8B" stroke-width="2" stroke-linecap="round" stroke-miterlimit="10" x1="15.853" y1="375.827" x2="13.468" y2="373.444"/>
	</g>
	<g>
		
			<line fill="none" stroke="#607D8B" stroke-width="2" stroke-linecap="round" stroke-miterlimit="10" x1="20.187" y1="380.161" x2="22.571" y2="382.547"/>
	</g>
	<g>
		<g>
			<path fill="#607D8B" d="M30.579,400c0.784,0,1.422,0.638,1.422,1.422v25.155c0,0.771-0.65,1.423-1.422,1.423H5.423
				c-0.771,0-1.422-0.651-1.422-1.423v-25.155c0-0.784,0.639-1.422,1.422-1.422H30.579 M30.579,398H5.423
				c-1.882,0-3.422,1.538-3.422,3.422v25.155c0,1.882,1.54,3.423,3.422,3.423h25.156c1.882,0,3.422-1.541,3.422-3.423v-25.155
				C34.001,399.538,32.461,398,30.579,398L30.579,398z"/>
		</g>
	</g>
	<g>
		<g>
			<path fill="#607D8B" d="M26.648,404.998c0.188,0,0.353,0.165,0.353,0.354v17.295c0,0.191-0.16,0.354-0.353,0.354H9.353
				C9.162,423,9,422.839,9,422.647v-17.295c0-0.188,0.164-0.354,0.353-0.354H26.648 M26.648,402.998H9.353
				c-1.293,0-2.353,1.061-2.353,2.354v17.295C7,423.942,8.058,425,9.353,425h17.296c1.294,0,2.353-1.059,2.353-2.354v-17.295
				C29.001,404.059,27.942,402.998,26.648,402.998L26.648,402.998z"/>
		</g>
	</g>
	<g>
		<g>
			<path fill="#607D8B" d="M18.022,412.077c1.062,0,1.925,0.863,1.925,1.925c0,1.061-0.863,1.924-1.925,1.924
				s-1.924-0.863-1.924-1.924C16.099,412.941,16.962,412.077,18.022,412.077 M18.022,410.077c-2.166,0-3.924,1.757-3.924,3.925
				s1.758,3.924,3.924,3.924c2.168,0,3.925-1.756,3.925-3.924S20.19,410.077,18.022,410.077L18.022,410.077z"/>
		</g>
	</g>
	<g>
		
			<line fill="none" stroke="#607D8B" stroke-width="2" stroke-linecap="round" stroke-miterlimit="10" x1="15.132" y1="415.172" x2="12.017" y2="416.461"/>
	</g>
	<g>
		
			<line fill="none" stroke="#607D8B" stroke-width="2" stroke-linecap="round" stroke-miterlimit="10" x1="16.849" y1="411.166" x2="15.558" y2="408.051"/>
	</g>
	<g>
		
			<line fill="none" stroke="#607D8B" stroke-width="2" stroke-linecap="round" stroke-miterlimit="10" x1="19.195" y1="416.829" x2="20.485" y2="419.946"/>
	</g>
	<g>
		<g>
			<path fill="#607D8B" d="M30.579,436c0.771,0,1.422,0.649,1.422,1.42v25.157c0,0.771-0.65,1.423-1.422,1.423H5.423
				c-0.771,0-1.422-0.651-1.422-1.423V437.42c0-0.771,0.651-1.42,1.422-1.42H30.579 M30.579,434H5.423
				c-1.882,0-3.422,1.538-3.422,3.42v25.157c0,1.882,1.54,3.423,3.422,3.423h25.156c1.882,0,3.422-1.541,3.422-3.423V437.42
				C34.001,435.538,32.461,434,30.579,434L30.579,434z"/>
		</g>
	</g>
	<g>
		<g>
			<path fill="#607D8B" d="M26.648,440.998c0.188,0,0.353,0.165,0.353,0.354v17.295c0,0.191-0.16,0.354-0.353,0.354H9.353
				C9.162,459,9,458.839,9,458.647v-17.295c0-0.188,0.164-0.354,0.353-0.354H26.648 M26.648,438.998H9.353
				c-1.293,0-2.353,1.061-2.353,2.354v17.295C7,459.942,8.058,461,9.353,461h17.296c1.294,0,2.353-1.059,2.353-2.354v-17.295
				C29.001,440.059,27.942,438.998,26.648,438.998L26.648,438.998z"/>
		</g>
	</g>
	<g>
		<g>
			<path fill="#607D8B" d="M18.022,448.077c1.062,0,1.925,0.863,1.925,1.925c0,1.061-0.863,1.924-1.925,1.924
				s-1.924-0.863-1.924-1.924C16.099,448.941,16.962,448.077,18.022,448.077 M18.022,446.077c-2.166,0-3.924,1.757-3.924,3.925
				s1.758,3.924,3.924,3.924c2.168,0,3.925-1.756,3.925-3.924S20.19,446.077,18.022,446.077L18.022,446.077z"/>
		</g>
	</g>
	<g>
		
			<line fill="none" stroke="#607D8B" stroke-width="2" stroke-linecap="round" stroke-miterlimit="10" x1="14.901" y1="449.981" x2="11.53" y2="449.981"/>
	</g>
	<g>
		
			<line fill="none" stroke="#607D8B" stroke-width="2" stroke-linecap="round" stroke-miterlimit="10" x1="18.021" y1="446.936" x2="18.021" y2="443.567"/>
	</g>
	<g>
		
			<line fill="none" stroke="#607D8B" stroke-width="2" stroke-linecap="round" stroke-miterlimit="10" x1="18.021" y1="453.069" x2="18.021" y2="456.44"/>
	</g>
	<g>
		<g>
			<path fill="#607D8B" d="M30.579,472c0.771,0,1.422,0.649,1.422,1.42v25.157c0,0.771-0.65,1.423-1.422,1.423H5.423
				c-0.771,0-1.422-0.651-1.422-1.423V473.42c0-0.771,0.651-1.42,1.422-1.42H30.579 M30.579,470H5.423
				c-1.882,0-3.422,1.538-3.422,3.42v25.157c0,1.882,1.54,3.423,3.422,3.423h25.156c1.882,0,3.422-1.541,3.422-3.423V473.42
				C34.001,471.538,32.461,470,30.579,470L30.579,470z"/>
		</g>
	</g>
	<g>
		<g>
			<path fill="#607D8B" d="M26.648,476.998c0.188,0,0.353,0.165,0.353,0.354v17.295c0,0.188-0.165,0.354-0.353,0.354H9.353
				C9.164,495,9,494.835,9,494.647v-17.295c0-0.188,0.164-0.354,0.353-0.354H26.648 M26.648,474.998H9.353
				c-1.293,0-2.353,1.061-2.353,2.354v17.295C7,495.94,8.058,497,9.353,497h17.296c1.294,0,2.353-1.061,2.353-2.354v-17.295
				C29.001,476.059,27.942,474.998,26.648,474.998L26.648,474.998z"/>
		</g>
	</g>
	<g>
		<g>
			<path fill="#607D8B" d="M18.022,484.077c1.062,0,1.925,0.863,1.925,1.925c0,1.061-0.863,1.924-1.925,1.924
				s-1.924-0.863-1.924-1.924C16.099,484.941,16.962,484.077,18.022,484.077 M18.022,482.077c-2.166,0-3.924,1.757-3.924,3.925
				s1.758,3.924,3.924,3.924c2.168,0,3.925-1.756,3.925-3.924S20.19,482.077,18.022,482.077L18.022,482.077z"/>
		</g>
	</g>
	<g>
		
			<line fill="none" stroke="#607D8B" stroke-width="2" stroke-linecap="round" stroke-miterlimit="10" x1="15.146" y1="484.793" x2="12.032" y2="483.502"/>
	</g>
	<g>
		
			<line fill="none" stroke="#607D8B" stroke-width="2" stroke-linecap="round" stroke-miterlimit="10" x1="19.194" y1="483.174" x2="20.484" y2="480.059"/>
	</g>
	<g>
		
			<line fill="none" stroke="#607D8B" stroke-width="2" stroke-linecap="round" stroke-miterlimit="10" x1="16.847" y1="488.838" x2="15.556" y2="491.952"/>
	</g>
	<g>
		<g>
			<path fill="#607D8B" d="M30.579,508c0.784,0,1.422,0.638,1.422,1.422v25.155c0,0.771-0.65,1.423-1.422,1.423H5.423
				c-0.771,0-1.422-0.651-1.422-1.423v-25.155c0-0.784,0.639-1.422,1.422-1.422H30.579 M30.579,506H5.423
				c-1.882,0-3.422,1.538-3.422,3.422v25.155c0,1.882,1.54,3.423,3.422,3.423h25.156c1.882,0,3.422-1.541,3.422-3.423v-25.155
				C34.001,507.538,32.461,506,30.579,506L30.579,506z"/>
		</g>
	</g>
	<g>
		<g>
			<path fill="#607D8B" d="M26.648,512.998c0.188,0,0.353,0.165,0.353,0.354v17.295c0,0.188-0.165,0.354-0.353,0.354H9.353
				C9.164,531,9,530.835,9,530.647v-17.295c0-0.188,0.164-0.354,0.353-0.354H26.648 M26.648,510.998H9.353
				c-1.293,0-2.353,1.061-2.353,2.354v17.295C7,531.94,8.058,533,9.353,533h17.296c1.294,0,2.353-1.061,2.353-2.354v-17.295
				C29.001,512.059,27.942,510.998,26.648,510.998L26.648,510.998z"/>
		</g>
	</g>
	<g>
		<g>
			<path fill="#607D8B" d="M18.022,520.077c1.062,0,1.925,0.863,1.925,1.925c0,1.061-0.863,1.924-1.925,1.924
				s-1.924-0.863-1.924-1.924C16.099,520.941,16.962,520.077,18.022,520.077 M18.022,518.077c-2.166,0-3.924,1.757-3.924,3.925
				s1.758,3.924,3.924,3.924c2.168,0,3.925-1.756,3.925-3.924S20.19,518.077,18.022,518.077L18.022,518.077z"/>
		</g>
	</g>
	<g>
		
			<line fill="none" stroke="#607D8B" stroke-width="2" stroke-linecap="round" stroke-miterlimit="10" x1="15.828" y1="519.788" x2="13.444" y2="517.405"/>
	</g>
	<g>
		
			<line fill="none" stroke="#607D8B" stroke-width="2" stroke-linecap="round" stroke-miterlimit="10" x1="20.185" y1="519.842" x2="22.569" y2="517.456"/>
	</g>
	<g>
		
			<line fill="none" stroke="#607D8B" stroke-width="2" stroke-linecap="round" stroke-miterlimit="10" x1="15.851" y1="524.178" x2="13.466" y2="526.561"/>
	</g>
	<g>
		<g>
			<path fill="#607D8B" d="M30.579,544c0.784,0,1.422,0.638,1.422,1.422v25.155c0,0.771-0.65,1.423-1.422,1.423H5.423
				c-0.771,0-1.422-0.651-1.422-1.423v-25.155c0-0.784,0.639-1.422,1.422-1.422H30.579 M30.579,542H5.423
				c-1.882,0-3.422,1.538-3.422,3.422v25.155c0,1.882,1.54,3.423,3.422,3.423h25.156c1.882,0,3.422-1.541,3.422-3.423v-25.155
				C34.001,543.538,32.461,542,30.579,542L30.579,542z"/>
		</g>
	</g>
	<g>
		<g>
			<path fill="#607D8B" d="M26.648,548.998c0.188,0,0.353,0.165,0.353,0.354v17.295c0,0.188-0.165,0.354-0.353,0.354H9.353
				C9.164,567,9,566.835,9,566.647v-17.295c0-0.188,0.164-0.354,0.353-0.354H26.648 M26.648,546.998H9.353
				c-1.293,0-2.353,1.061-2.353,2.354v17.295C7,567.94,8.058,569,9.353,569h17.296c1.294,0,2.353-1.061,2.353-2.354v-17.295
				C29.001,548.059,27.942,546.998,26.648,546.998L26.648,546.998z"/>
		</g>
	</g>
	<g>
		<g>
			<path fill="#607D8B" d="M18.022,556.077c1.062,0,1.925,0.863,1.925,1.925c0,1.061-0.863,1.924-1.925,1.924
				s-1.924-0.863-1.924-1.924C16.099,556.941,16.962,556.077,18.022,556.077 M18.022,554.077c-2.166,0-3.924,1.757-3.924,3.925
				s1.758,3.924,3.924,3.924c2.168,0,3.925-1.756,3.925-3.924S20.19,554.077,18.022,554.077L18.022,554.077z"/>
		</g>
	</g>
	<g>
		
			<line fill="none" stroke="#607D8B" stroke-width="2" stroke-linecap="round" stroke-miterlimit="10" x1="16.841" y1="555.12" x2="15.55" y2="552.008"/>
	</g>
	<g>
		
			<line fill="none" stroke="#607D8B" stroke-width="2" stroke-linecap="round" stroke-miterlimit="10" x1="20.847" y1="556.838" x2="23.96" y2="555.549"/>
	</g>
	<g>
		
			<line fill="none" stroke="#607D8B" stroke-width="2" stroke-linecap="round" stroke-miterlimit="10" x1="15.181" y1="559.186" x2="12.067" y2="560.477"/>
	</g>
</g>
</svg>
