<?xml version="1.0" encoding="utf-8"?>
<!-- Generator: Adobe Illustrator 15.0.2, SVG Export Plug-In . SVG Version: 6.00 Build 0)  -->
<!DOCTYPE svg PUBLIC "-//W3C//DTD SVG 1.1//EN" "http://www.w3.org/Graphics/SVG/1.1/DTD/svg11.dtd">
<svg version="1.1" id="Calque_1" xmlns="http://www.w3.org/2000/svg" xmlns:xlink="http://www.w3.org/1999/xlink" x="0px" y="0px"
	 width="36.154px" height="180px" viewBox="0 0 36.154 180" enable-background="new 0 0 36.154 180" xml:space="preserve">
<g>
	<rect x="21.955" y="162.66" fill="#2196F3" width="6.42" height="13.527"/>
	<rect x="8.424" y="126.977" fill="#2196F3" width="6.334" height="6.334"/>
	<rect x="21.827" y="84.407" fill="#2196F3" width="6.221" height="6.221"/>
	<rect x="8.875" y="12.801" fill="#2196F3" width="5.434" height="5.434"/>
	<rect x="15.374" y="61.984" fill="#2196F3" width="5.56" height="5.561"/>
	<path fill="#607D8B" d="M27.315,2H8.557C7.339,2,6.35,2.988,6.35,4.208v27.585C6.35,33.014,7.339,34,8.557,34h18.758
		c1.22,0,2.207-0.986,2.207-2.207V4.208C29.522,2.988,28.535,2,27.315,2 M14.074,31.242H9.108v-4.967h4.966V31.242z M14.074,24.621
		H9.108v-4.967h4.966V24.621z M14.074,18H9.108v-4.965h4.966V18z M20.694,31.242h-4.965v-4.967h4.965V31.242z M20.694,24.621h-4.965
		v-4.967h4.965V24.621z M20.694,18h-4.965v-4.965h4.965V18z M26.763,31.242h-4.414V19.654h4.414V31.242z M26.763,18h-4.414v-4.965
		h4.414V18z M26.763,9.725H9.108V5.861h17.655V9.725z"/>
	<path fill="#607D8B" d="M27.315,38H8.557c-1.219,0-2.207,0.988-2.207,2.208v27.585C6.35,69.014,7.339,70,8.557,70h18.758
		c1.22,0,2.207-0.986,2.207-2.207V40.208C29.522,38.988,28.535,38,27.315,38 M14.074,67.242H9.108v-4.967h4.966V67.242z
		 M14.074,60.621H9.108v-4.967h4.966V60.621z M14.074,54H9.108v-4.965h4.966V54z M20.694,67.242h-4.965v-4.967h4.965V67.242z
		 M20.694,60.621h-4.965v-4.967h4.965V60.621z M20.694,54h-4.965v-4.965h4.965V54z M26.763,67.242h-4.414V55.654h4.414V67.242z
		 M26.763,54h-4.414v-4.965h4.414V54z M26.763,45.725H9.108v-3.863h17.655V45.725z"/>
	<path fill="#607D8B" d="M27.315,74H8.557c-1.219,0-2.207,0.988-2.207,2.208v27.585c0,1.221,0.988,2.207,2.207,2.207h18.758
		c1.22,0,2.207-0.986,2.207-2.207V76.208C29.522,74.988,28.535,74,27.315,74 M14.074,103.242H9.108v-4.967h4.966V103.242z
		 M14.074,96.621H9.108v-4.967h4.966V96.621z M14.074,90H9.108v-4.965h4.966V90z M20.694,103.242h-4.965v-4.967h4.965V103.242z
		 M20.694,96.621h-4.965v-4.967h4.965V96.621z M20.694,90h-4.965v-4.965h4.965V90z M26.763,103.242h-4.414V91.654h4.414V103.242z
		 M26.763,90h-4.414v-4.965h4.414V90z M26.763,81.725H9.108v-3.863h17.655V81.725z"/>
	<path fill="#607D8B" d="M27.315,110H8.557c-1.219,0-2.207,0.988-2.207,2.207v27.586c0,1.219,0.988,2.207,2.207,2.207h18.758
		c1.22,0,2.207-0.988,2.207-2.207v-27.586C29.522,110.988,28.535,110,27.315,110 M14.074,139.242H9.108v-4.967h4.966V139.242z
		 M14.074,132.621H9.108v-4.967h4.966V132.621z M14.074,126H9.108v-4.965h4.966V126z M20.694,139.242h-4.965v-4.967h4.965V139.242z
		 M20.694,132.621h-4.965v-4.967h4.965V132.621z M20.694,126h-4.965v-4.965h4.965V126z M26.763,139.242h-4.414v-11.588h4.414
		V139.242z M26.763,126h-4.414v-4.965h4.414V126z M26.763,117.725H9.108v-3.863h17.655V117.725z"/>
	<path fill="#607D8B" d="M27.315,146H8.557c-1.219,0-2.207,0.988-2.207,2.207v27.586c0,1.219,0.988,2.207,2.207,2.207h18.758
		c1.22,0,2.207-0.988,2.207-2.207v-27.586C29.522,146.988,28.535,146,27.315,146 M14.074,175.242H9.108v-4.967h4.966V175.242z
		 M14.074,168.621H9.108v-4.967h4.966V168.621z M14.074,162H9.108v-4.965h4.966V162z M20.694,175.242h-4.965v-4.967h4.965V175.242z
		 M20.694,168.621h-4.965v-4.967h4.965V168.621z M20.694,162h-4.965v-4.965h4.965V162z M26.763,175.242h-4.414v-11.588h4.414
		V175.242z M26.763,162h-4.414v-4.965h4.414V162z M26.763,153.725H9.108v-3.863h17.655V153.725z"/>
	<rect x="0.077" fill="#607D8B" fill-opacity="0" width="36" height="180"/>
</g>
</svg>
