<?xml version="1.0" encoding="utf-8"?>
<!-- Generator: Adobe Illustrator 15.0.2, SVG Export Plug-In . SVG Version: 6.00 Build 0)  -->
<!DOCTYPE svg PUBLIC "-//W3C//DTD SVG 1.1//EN" "http://www.w3.org/Graphics/SVG/1.1/DTD/svg11.dtd">
<svg version="1.1" id="Calque_1" xmlns="http://www.w3.org/2000/svg" xmlns:xlink="http://www.w3.org/1999/xlink" x="0px" y="0px"
	 width="36px" height="1260px" viewBox="0 0 36 1260" enable-background="new 0 0 36 1260" xml:space="preserve">
<g>
	<path fill="none" stroke="#00BCD4" stroke-width="3" stroke-linecap="round" stroke-miterlimit="10" d="M18.031,6.158
		c6.627,0,11.996,5.373,11.996,12s-5.369,12-11.996,12"/>
	<path fill="none" stroke="#00BCD4" stroke-width="3.0573" stroke-linecap="round" stroke-miterlimit="10" d="M18.065,25.64
		c-4.132,0-7.485-3.348-7.485-7.481s3.354-7.482,7.485-7.482"/>
	<path fill="none" stroke="#00BCD4" stroke-width="3" stroke-linecap="round" stroke-miterlimit="10" d="M20.113,42.34
		c6.527,1.151,10.883,7.375,9.731,13.901c-1.15,6.525-7.372,10.885-13.897,9.733"/>
	<path fill="none" stroke="#00BCD4" stroke-width="3" stroke-linecap="round" stroke-miterlimit="10" d="M19.365,61.52
		c-4.07,0.718-7.953-1.998-8.671-6.068c-0.718-4.071,2.003-7.95,6.072-8.668"/>
	<path fill="none" stroke="#00BCD4" stroke-width="3" stroke-linecap="round" stroke-miterlimit="10" d="M22.135,78.882
		c6.227,2.268,9.436,9.152,7.169,15.379c-2.267,6.229-9.15,9.44-15.378,7.173"/>
	<path fill="none" stroke="#00BCD4" stroke-width="3" stroke-linecap="round" stroke-miterlimit="10" d="M20.623,97.175
		c-3.883,1.413-8.18-0.586-9.592-4.471c-1.414-3.884,0.592-8.177,4.475-9.591"/>
	<path fill="none" stroke="#00BCD4" stroke-width="3" stroke-linecap="round" stroke-miterlimit="10" d="M24.031,115.767
		c5.738,3.313,7.702,10.651,4.389,16.392c-3.313,5.74-10.65,7.707-16.389,4.394"/>
	<path fill="none" stroke="#00BCD4" stroke-width="3" stroke-linecap="round" stroke-miterlimit="10" d="M21.802,132.618
		c-3.578,2.065-8.156,0.844-10.224-2.737c-2.065-3.579-0.836-8.156,2.741-10.222"/>
	<path fill="none" stroke="#00BCD4" stroke-width="3" stroke-linecap="round" stroke-miterlimit="10" d="M25.744,152.967
		c5.076,4.26,5.735,11.827,1.477,16.904c-4.26,5.076-11.827,5.74-16.903,1.479"/>
	<path fill="none" stroke="#00BCD4" stroke-width="3" stroke-linecap="round" stroke-miterlimit="10" d="M22.865,167.865
		c-3.164,2.655-7.885,2.247-10.543-0.92c-2.656-3.166-2.24-7.888,0.926-10.543"/>
	<path fill="none" stroke="#00BCD4" stroke-width="3" stroke-linecap="round" stroke-miterlimit="10" d="M27.222,190.446
		c4.261,5.076,3.597,12.646-1.479,16.903c-5.078,4.262-12.646,3.602-16.904-1.477"/>
	<path fill="none" stroke="#00BCD4" stroke-width="3" stroke-linecap="round" stroke-miterlimit="10" d="M23.783,202.938
		c-2.656,3.165-7.375,3.582-10.543,0.926c-3.166-2.657-3.576-7.378-0.92-10.543"/>
	<path fill="none" stroke="#00BCD4" stroke-width="3" stroke-linecap="round" stroke-miterlimit="10" d="M28.422,228.16
		c3.313,5.739,1.345,13.076-4.395,16.39c-5.738,3.313-13.078,1.351-16.391-4.39"/>
	<path fill="none" stroke="#00BCD4" stroke-width="3" stroke-linecap="round" stroke-miterlimit="10" d="M24.525,237.865
		c-2.066,3.579-6.642,4.809-10.222,2.74c-3.579-2.065-4.804-6.645-2.737-10.223"/>
	<path fill="none" stroke="#00BCD4" stroke-width="3" stroke-linecap="round" stroke-miterlimit="10" d="M29.619,267.054
		c1.717,6.401-2.084,12.979-8.485,14.694c-6.401,1.716-12.981-2.08-14.696-8.481"/>
	<path fill="none" stroke="#00BCD4" stroke-width="3" stroke-linecap="round" stroke-miterlimit="10" d="M25.265,272.057
		c-1.07,3.991-5.171,6.364-9.165,5.294c-3.992-1.069-6.357-5.176-5.289-9.166"/>
	<path fill="none" stroke="#00BCD4" stroke-width="3" stroke-linecap="round" stroke-miterlimit="10" d="M29.982,305.114
		c0.578,6.603-4.307,12.421-10.908,12.997c-6.602,0.578-12.423-4.303-13-10.903"/>
	<path fill="none" stroke="#00BCD4" stroke-width="3" stroke-linecap="round" stroke-miterlimit="10" d="M25.484,306.772
		c-0.359,4.115-3.986,7.165-8.105,6.806c-4.117-0.36-7.16-3.993-6.801-8.108"/>
	<path fill="none" stroke="#00BCD4" stroke-width="3" stroke-linecap="round" stroke-miterlimit="10" d="M29.982,343.206
		c-0.576,6.602-6.398,11.482-13.001,10.904c-6.601-0.576-11.485-6.395-10.909-12.996"/>
	<path fill="none" stroke="#00BCD4" stroke-width="3" stroke-linecap="round" stroke-miterlimit="10" d="M25.478,341.467
		c0.358,4.115-2.683,7.749-6.802,8.109c-4.117,0.359-7.745-2.688-8.105-6.806"/>
	<path fill="none" stroke="#00BCD4" stroke-width="3" stroke-linecap="round" stroke-miterlimit="10" d="M29.619,381.267
		c-1.715,6.401-8.295,10.197-14.697,8.481c-6.4-1.715-10.202-8.292-8.486-14.693"/>
	<path fill="none" stroke="#00BCD4" stroke-width="3" stroke-linecap="round" stroke-miterlimit="10" d="M25.244,376.184
		c1.068,3.99-1.295,8.097-5.289,9.167c-3.992,1.069-8.094-1.303-9.164-5.294"/>
	<path fill="none" stroke="#00BCD4" stroke-width="3" stroke-linecap="round" stroke-miterlimit="10" d="M28.902,419.232
		c-2.799,6.006-9.939,8.603-15.947,5.802c-6.004-2.802-8.605-9.938-5.806-15.943"/>
	<path fill="none" stroke="#00BCD4" stroke-width="3" stroke-linecap="round" stroke-miterlimit="10" d="M24.791,410.961
		c1.746,3.744,0.131,8.198-3.617,9.944c-3.745,1.746-8.196,0.122-9.943-3.621"/>
	<path fill="none" stroke="#00BCD4" stroke-width="3" stroke-linecap="round" stroke-miterlimit="10" d="M27.856,457.044
		c-3.799,5.429-11.282,6.744-16.712,2.942c-5.428-3.801-6.75-11.279-2.949-16.709"/>
	<path fill="none" stroke="#00BCD4" stroke-width="3" stroke-linecap="round" stroke-miterlimit="10" d="M24.135,445.835
		c2.369,3.384,1.552,8.051-1.836,10.423c-3.385,2.369-8.051,1.543-10.422-1.842"/>
	<path fill="none" stroke="#00BCD4" stroke-width="3" stroke-linecap="round" stroke-miterlimit="10" d="M26.512,494.647
		c-4.686,4.687-12.282,4.683-16.971-0.004c-4.686-4.686-4.688-12.281-0.002-16.968"/>
	<path fill="none" stroke="#00BCD4" stroke-width="3" stroke-linecap="round" stroke-miterlimit="10" d="M23.291,480.84
		c2.92,2.921,2.927,7.659,0,10.584c-2.92,2.921-7.66,2.918-10.582-0.005"/>
	<path fill="none" stroke="#00BCD4" stroke-width="3" stroke-linecap="round" stroke-miterlimit="10" d="M24.908,531.99
		c-5.426,3.803-12.908,2.479-16.709-2.948c-3.802-5.43-2.486-12.91,2.942-16.712"/>
	<path fill="none" stroke="#00BCD4" stroke-width="3" stroke-linecap="round" stroke-miterlimit="10" d="M22.289,516.007
		c3.381,2.369,4.211,7.034,1.838,10.423c-2.369,3.384-7.037,4.204-10.422,1.833"/>
	<path fill="none" stroke="#00BCD4" stroke-width="3" stroke-linecap="round" stroke-miterlimit="10" d="M23.097,569.036
		c-6.004,2.802-13.142,0.198-15.945-5.808c-2.8-6.006-0.206-13.146,5.802-15.945"/>
	<path fill="none" stroke="#00BCD4" stroke-width="3" stroke-linecap="round" stroke-miterlimit="10" d="M21.156,551.36
		c3.741,1.746,5.369,6.195,3.62,9.945c-1.745,3.743-6.2,5.362-9.946,3.615"/>
	<path fill="none" stroke="#00BCD4" stroke-width="3" stroke-linecap="round" stroke-miterlimit="10" d="M21.131,605.751
		c-6.399,1.717-12.978-2.086-14.694-8.487c-1.715-6.4,2.08-12.98,8.481-14.697"/>
	<path fill="none" stroke="#00BCD4" stroke-width="3" stroke-linecap="round" stroke-miterlimit="10" d="M19.928,586.92
		c3.988,1.07,6.363,5.169,5.293,9.166c-1.07,3.99-5.174,6.356-9.167,5.287"/>
	<path fill="none" stroke="#00BCD4" stroke-width="3" stroke-linecap="round" stroke-miterlimit="10" d="M19.07,642.114
		c-6.6,0.579-12.418-4.308-12.996-10.91c-0.578-6.602,4.301-12.423,10.904-13"/>
	<path fill="none" stroke="#00BCD4" stroke-width="3" stroke-linecap="round" stroke-miterlimit="10" d="M18.643,622.699
		c4.113,0.36,7.166,3.985,6.804,8.106c-0.36,4.116-3.991,7.161-8.11,6.8"/>
	<path fill="none" stroke="#00BCD4" stroke-width="3" stroke-linecap="round" stroke-miterlimit="10" d="M16.982,678.113
		c-6.602-0.577-11.482-6.397-10.904-13c0.576-6.602,6.396-11.485,12.996-10.908"/>
	<path fill="none" stroke="#00BCD4" stroke-width="3" stroke-linecap="round" stroke-miterlimit="10" d="M17.342,658.709
		c4.115-0.36,7.748,2.683,8.107,6.801c0.36,4.118-2.688,7.746-6.805,8.105"/>
	<path fill="none" stroke="#00BCD4" stroke-width="3" stroke-linecap="round" stroke-miterlimit="10" d="M14.922,713.749
		c-6.4-1.716-10.197-8.295-8.481-14.696c1.716-6.4,8.292-10.201,14.694-8.486"/>
	<path fill="none" stroke="#00BCD4" stroke-width="3" stroke-linecap="round" stroke-miterlimit="10" d="M16.059,694.941
		c3.99-1.068,8.096,1.297,9.166,5.29c1.068,3.993-1.303,8.096-5.293,9.164"/>
	<path fill="none" stroke="#00BCD4" stroke-width="3" stroke-linecap="round" stroke-miterlimit="10" d="M12.957,749.033
		c-6.006-2.802-8.604-9.939-5.803-15.945c2.801-6.007,9.938-8.607,15.944-5.808"/>
	<path fill="none" stroke="#00BCD4" stroke-width="3" stroke-linecap="round" stroke-miterlimit="10" d="M14.953,731.34
		c3.775-1.682,8.199,0.014,9.881,3.79c1.683,3.775-0.02,8.198-3.795,9.88"/>
	<path fill="none" stroke="#00BCD4" stroke-width="3" stroke-linecap="round" stroke-miterlimit="10" d="M11.146,783.987
		c-5.429-3.801-6.745-11.281-2.944-16.711c3.801-5.429,11.281-6.75,16.711-2.948"/>
	<path fill="none" stroke="#00BCD4" stroke-width="3" stroke-linecap="round" stroke-miterlimit="10" d="M13.709,768.052
		c3.385-2.37,8.051-1.551,10.422,1.836c2.371,3.386,1.545,8.052-1.84,10.422"/>
	<path fill="none" stroke="#00BCD4" stroke-width="3" stroke-linecap="round" stroke-miterlimit="10" d="M9.543,818.643
		c-4.687-4.687-4.685-12.283,0.002-16.969c4.687-4.688,12.283-4.688,16.969-0.002"/>
	<path fill="none" stroke="#00BCD4" stroke-width="3" stroke-linecap="round" stroke-miterlimit="10" d="M12.713,804.896
		c2.922-2.922,7.66-2.926,10.584-0.002c2.923,2.922,2.92,7.661-0.002,10.583"/>
	<path fill="none" stroke="#00BCD4" stroke-width="3" stroke-linecap="round" stroke-miterlimit="10" d="M8.199,853.039
		c-3.801-5.429-2.479-12.909,2.948-16.71c5.429-3.802,12.911-2.484,16.712,2.943"/>
	<path fill="none" stroke="#00BCD4" stroke-width="3" stroke-linecap="round" stroke-miterlimit="10" d="M11.881,841.898
		c2.369-3.385,7.035-4.211,10.422-1.84c3.386,2.371,4.205,7.038,1.836,10.423"/>
	<path fill="none" stroke="#00BCD4" stroke-width="3" stroke-linecap="round" stroke-miterlimit="10" d="M6.754,886.261
		c-2.268-6.228,0.945-13.111,7.173-15.378s13.112,0.941,15.38,7.169"/>
	<path fill="none" stroke="#00BCD4" stroke-width="3" stroke-linecap="round" stroke-miterlimit="10" d="M10.987,879.636
		c1.413-3.883,5.706-5.889,9.591-4.475c3.885,1.413,5.885,5.71,4.472,9.592"/>
	<path fill="none" stroke="#00BCD4" stroke-width="3" stroke-linecap="round" stroke-miterlimit="10" d="M6.213,920.238
		c-1.151-6.525,3.207-12.747,9.733-13.897c6.525-1.151,12.75,3.203,13.9,9.729"/>
	<path fill="none" stroke="#00BCD4" stroke-width="3" stroke-linecap="round" stroke-miterlimit="10" d="M10.656,916.896
		c0.719-4.067,4.598-6.79,8.668-6.072c4.07,0.719,6.785,4.603,6.068,8.671"/>
	<path fill="none" stroke="#00BCD4" stroke-width="3" stroke-linecap="round" stroke-miterlimit="10" d="M6.031,954.154
		c0-6.627,5.372-11.997,12-11.997c6.627,0,12,5.369,12,11.996"/>
	<path fill="none" stroke="#00BCD4" stroke-width="3" stroke-linecap="round" stroke-miterlimit="10" d="M10.549,954.195
		c0.001-4.131,3.348-7.484,7.482-7.484c4.133,0,7.48,3.354,7.48,7.484"/>
	<path fill="none" stroke="#00BCD4" stroke-width="3" stroke-linecap="round" stroke-miterlimit="10" d="M6.213,988.07
		c1.149-6.525,7.375-10.882,13.902-9.729c6.524,1.15,10.885,7.371,9.733,13.896"/>
	<path fill="none" stroke="#00BCD4" stroke-width="3" stroke-linecap="round" stroke-miterlimit="10" d="M10.67,991.494
		c-0.717-4.068,1.996-7.953,6.067-8.672c4.07-0.718,7.949,2.004,8.669,6.072"/>
	<path fill="none" stroke="#00BCD4" stroke-width="3" stroke-linecap="round" stroke-miterlimit="10" d="M6.754,1022.051
		c2.267-6.228,9.152-9.436,15.382-7.168c6.227,2.267,9.44,9.148,7.173,15.377"/>
	<path fill="none" stroke="#00BCD4" stroke-width="3" stroke-linecap="round" stroke-miterlimit="10" d="M11.014,1028.754
		c-1.412-3.882,0.585-8.18,4.471-9.594c3.883-1.412,8.176,0.594,9.59,4.477"/>
	<path fill="none" stroke="#00BCD4" stroke-width="3" stroke-linecap="round" stroke-miterlimit="10" d="M7.64,1056.155
		c3.312-5.738,10.651-7.701,16.392-4.389c5.738,3.313,7.709,10.649,4.396,16.389"/>
	<path fill="none" stroke="#00BCD4" stroke-width="3" stroke-linecap="round" stroke-miterlimit="10" d="M11.57,1065.933
		c-2.064-3.577-0.844-8.155,2.738-10.223c3.578-2.065,8.154-0.836,10.221,2.741"/>
	<path fill="none" stroke="#00BCD4" stroke-width="3" stroke-linecap="round" stroke-miterlimit="10" d="M8.84,1090.441
		c4.258-5.076,11.826-5.733,16.904-1.475c5.075,4.259,5.741,11.825,1.481,16.901"/>
	<path fill="none" stroke="#00BCD4" stroke-width="3" stroke-linecap="round" stroke-miterlimit="10" d="M12.324,1102.997
		c-2.654-3.164-2.248-7.886,0.922-10.543c3.164-2.655,7.885-2.239,10.541,0.927"/>
	<path fill="none" stroke="#00BCD4" stroke-width="3" stroke-linecap="round" stroke-miterlimit="10" d="M10.319,1124.963
		c5.075-4.26,12.644-3.594,16.904,1.482c4.259,5.075,3.601,12.644-1.476,16.903"/>
	<path fill="none" stroke="#00BCD4" stroke-width="3" stroke-linecap="round" stroke-miterlimit="10" d="M13.25,1139.915
		c-3.162-2.655-3.582-7.375-0.924-10.544c2.655-3.164,7.377-3.574,10.543-0.917"/>
	<path fill="none" stroke="#00BCD4" stroke-width="3" stroke-linecap="round" stroke-miterlimit="10" d="M12.033,1159.766
		c5.737-3.313,13.074-1.344,16.392,4.396c3.313,5.738,1.35,13.077-4.39,16.392"/>
	<path fill="none" stroke="#00BCD4" stroke-width="3" stroke-linecap="round" stroke-miterlimit="10" d="M14.322,1176.658
		c-3.574-2.064-4.809-6.64-2.74-10.223c2.066-3.577,6.646-4.802,10.224-2.734"/>
	<path fill="none" stroke="#00BCD4" stroke-width="3" stroke-linecap="round" stroke-miterlimit="10" d="M13.93,1194.882
		c6.225-2.269,13.109,0.947,15.377,7.175s-0.939,13.113-7.168,15.38"/>
	<path fill="none" stroke="#00BCD4" stroke-width="3" stroke-linecap="round" stroke-miterlimit="10" d="M15.508,1213.205
		c-3.881-1.414-5.891-5.704-4.475-9.593c1.414-3.882,5.709-5.883,9.594-4.469"/>
	<path fill="none" stroke="#00BCD4" stroke-width="3" stroke-linecap="round" stroke-miterlimit="10" d="M15.949,1230.343
		c6.525-1.152,12.746,3.209,13.898,9.736c1.15,6.524-3.203,12.75-9.73,13.9"/>
	<path fill="none" stroke="#00BCD4" stroke-width="3" stroke-linecap="round" stroke-miterlimit="10" d="M16.77,1249.538
		c-4.066-0.719-6.791-4.596-6.072-8.669c0.719-4.068,4.602-6.785,8.672-6.066"/>
	<rect y="0" fill="#607D8B" fill-opacity="0" width="36" height="1260"/>
</g>
</svg>
