<?xml version="1.0" encoding="utf-8"?>
<!-- Generator: Adobe Illustrator 15.0.2, SVG Export Plug-In . SVG Version: 6.00 Build 0)  -->
<!DOCTYPE svg PUBLIC "-//W3C//DTD SVG 1.1//EN" "http://www.w3.org/Graphics/SVG/1.1/DTD/svg11.dtd">
<svg version="1.1" id="Calque_1" xmlns="http://www.w3.org/2000/svg" xmlns:xlink="http://www.w3.org/1999/xlink" x="0px" y="0px"
	 width="36px" height="684px" viewBox="0 0 36 684" enable-background="new 0 0 36 684" xml:space="preserve">
<g>
	<rect y="0" fill="#607D8B" fill-opacity="0" width="36" height="684"/>
	<path fill="none" d="M3.842,490c0,1.02,0.709,1.867,1.658,2.094v-4.188C4.551,488.133,3.842,488.982,3.842,490z"/>
	<path fill="none" d="M8.158,490c0-1.02-0.709-1.867-1.658-2.095v4.188C7.449,491.867,8.158,491.02,8.158,490z"/>
	<path fill="none" d="M3.842,453c0,1.02,0.709,1.867,1.658,2.094v-4.188C4.551,451.133,3.842,451.982,3.842,453z"/>
	<path fill="none" d="M8.158,453c0-1.02-0.709-1.867-1.658-2.095v4.188C7.449,454.867,8.158,454.02,8.158,453z"/>
	<path fill="none" d="M8.158,194c0-1.021-0.708-1.868-1.658-2.095v4.188C7.45,195.866,8.158,195.019,8.158,194z"/>
	<path fill="none" d="M8.158,527c0-1.02-0.709-1.867-1.658-2.095v4.188C7.449,528.867,8.158,528.02,8.158,527z"/>
	<path fill="none" d="M3.842,231c0,1.019,0.709,1.866,1.658,2.094v-4.188C4.551,229.132,3.842,229.981,3.842,231z"/>
	<path fill="none" d="M3.842,268c0,1.019,0.709,1.866,1.658,2.094v-4.188C4.551,266.132,3.842,266.981,3.842,268z"/>
	<path fill="none" d="M3.842,527c0,1.02,0.709,1.867,1.658,2.094v-4.188C4.551,525.133,3.842,525.982,3.842,527z"/>
	<path fill="none" d="M8.158,268c0-1.021-0.708-1.868-1.658-2.095v4.188C7.45,269.866,8.158,269.019,8.158,268z"/>
	<path fill="none" d="M8.158,231c0-1.021-0.708-1.868-1.658-2.095v4.188C7.45,232.866,8.158,232.019,8.158,231z"/>
	<path fill="none" d="M3.842,379c0,1.02,0.709,1.867,1.658,2.094v-4.188C4.551,377.133,3.842,377.982,3.842,379z"/>
	<path fill="none" d="M3.842,194c0,1.019,0.709,1.866,1.658,2.094v-4.188C4.551,192.132,3.842,192.981,3.842,194z"/>
	<path fill="none" d="M20.158,27c0-1.02-0.709-1.868-1.658-2.095v4.188C19.449,28.867,20.158,28.019,20.158,27z"/>
	<path fill="none" d="M15.842,62c0,1.019,0.709,1.868,1.658,2.094v-4.188C16.551,60.132,15.842,60.981,15.842,62z"/>
	<path fill="none" d="M8.158,379c0-1.02-0.709-1.867-1.658-2.095v4.188C7.449,380.867,8.158,380.02,8.158,379z"/>
	<path fill="none" d="M15.842,27c0,1.019,0.709,1.868,1.658,2.094v-4.188C16.551,25.132,15.842,25.981,15.842,27z"/>
	<path fill="none" d="M3.842,416c0,1.02,0.709,1.867,1.658,2.094v-4.188C4.551,414.133,3.842,414.982,3.842,416z"/>
	<path fill="none" d="M8.158,416c0-1.02-0.709-1.867-1.658-2.095v4.188C7.449,417.867,8.158,417.02,8.158,416z"/>
	<path fill="none" d="M3.842,157c0,1.019,0.709,1.866,1.658,2.094v-4.188C4.551,155.132,3.842,155.981,3.842,157z"/>
	<path fill="none" d="M8.158,157c0-1.021-0.708-1.868-1.658-2.095v4.188C7.45,158.866,8.158,158.019,8.158,157z"/>
	<path fill="none" d="M3.842,564c0,1.02,0.709,1.867,1.658,2.094v-4.188C4.551,562.133,3.842,562.982,3.842,564z"/>
	<path fill="none" d="M27.842,638c0,1.02,0.709,1.867,1.658,2.094v-4.188C28.551,636.133,27.842,636.982,27.842,638z"/>
	<path fill="none" d="M32.158,638c0-1.02-0.709-1.867-1.658-2.095v4.188C31.449,639.867,32.158,639.02,32.158,638z"/>
	<path fill="none" d="M32.158,675c0-1.02-0.709-1.867-1.658-2.095v4.188C31.449,676.867,32.158,676.02,32.158,675z"/>
	<path fill="none" d="M20.158,62c0-1.02-0.709-1.868-1.658-2.095v4.188C19.449,63.867,20.158,63.019,20.158,62z"/>
	<path fill="none" d="M8.158,638c0-1.02-0.709-1.867-1.658-2.095v4.188C7.449,639.867,8.158,639.02,8.158,638z"/>
	<path fill="none" d="M27.842,675c0,1.02,0.709,1.867,1.658,2.094v-4.188C28.551,673.133,27.842,673.982,27.842,675z"/>
	<path fill="none" d="M27.842,601c0,1.02,0.709,1.867,1.658,2.094v-4.188C28.551,599.133,27.842,599.982,27.842,601z"/>
	<path fill="none" d="M8.158,675c0-1.02-0.709-1.867-1.658-2.095v4.188C7.449,676.867,8.158,676.02,8.158,675z"/>
	<path fill="none" d="M3.842,675c0,1.02,0.709,1.867,1.658,2.094v-4.188C4.551,673.133,3.842,673.982,3.842,675z"/>
	<path fill="none" d="M32.158,564c0-1.02-0.709-1.867-1.658-2.095v4.188C31.449,565.867,32.158,565.02,32.158,564z"/>
	<path fill="none" d="M32.158,601c0-1.02-0.709-1.867-1.658-2.095v4.188C31.449,602.867,32.158,602.02,32.158,601z"/>
	<path fill="none" d="M8.158,305c0-1.021-0.708-1.868-1.658-2.095v4.188C7.45,306.866,8.158,306.019,8.158,305z"/>
	<path fill="none" d="M3.842,638c0,1.02,0.709,1.867,1.658,2.094v-4.188C4.551,636.133,3.842,636.982,3.842,638z"/>
	<path fill="none" d="M8.158,601c0-1.02-0.709-1.867-1.658-2.095v4.188C7.449,602.867,8.158,602.02,8.158,601z"/>
	<path fill="none" d="M8.158,564c0-1.02-0.709-1.867-1.658-2.095v4.188C7.449,565.867,8.158,565.02,8.158,564z"/>
	<path fill="none" d="M3.842,305c0,1.019,0.709,1.866,1.658,2.094v-4.188C4.551,303.132,3.842,303.981,3.842,305z"/>
	<path fill="none" d="M3.842,601c0,1.02,0.709,1.867,1.658,2.094v-4.188C4.551,599.133,3.842,599.982,3.842,601z"/>
	<path fill="none" d="M3.842,342c0,1.019,0.709,1.866,1.658,2.094v-4.188C4.551,340.132,3.842,340.981,3.842,342z"/>
	<path fill="none" d="M27.842,416c0,1.02,0.709,1.867,1.658,2.094v-4.188C28.551,414.133,27.842,414.982,27.842,416z"/>
	<path fill="none" d="M8.158,342c0-1.021-0.708-1.868-1.658-2.095v4.188C7.45,343.866,8.158,343.019,8.158,342z"/>
	<path fill="none" d="M32.158,416c0-1.02-0.709-1.867-1.658-2.095v4.188C31.449,417.867,32.158,417.02,32.158,416z"/>
	<path fill="none" d="M8.158,120c0-1.021-0.708-1.868-1.658-2.095v4.188C7.45,121.867,8.158,121.019,8.158,120z"/>
	<path fill="none" d="M3.842,46c0,1.019,0.709,1.868,1.658,2.094v-4.188C4.551,44.132,3.842,44.981,3.842,46z"/>
	<path fill="none" d="M15.842,587c0,1.02,0.709,1.867,1.658,2.094v-4.188C16.551,585.133,15.842,585.982,15.842,587z"/>
	<path fill="none" d="M20.158,587c0-1.02-0.709-1.867-1.658-2.095v4.188C19.449,588.867,20.158,588.02,20.158,587z"/>
	<path fill="none" d="M15.842,552c0,1.02,0.709,1.867,1.658,2.094v-4.188C16.551,550.133,15.842,550.982,15.842,552z"/>
	<path fill="none" d="M8.158,9c0-1.02-0.708-1.868-1.658-2.095v4.188C7.45,10.867,8.158,10.019,8.158,9z"/>
	<path fill="none" d="M20.158,552c0-1.02-0.709-1.867-1.658-2.095v4.188C19.449,553.867,20.158,553.02,20.158,552z"/>
	<path fill="none" d="M20.158,622c0-1.02-0.709-1.867-1.658-2.095v4.188C19.449,623.867,20.158,623.02,20.158,622z"/>
	<path fill="none" d="M8.158,46c0-1.02-0.708-1.868-1.658-2.095v4.188C7.45,47.867,8.158,47.019,8.158,46z"/>
	<path fill="none" d="M3.842,83c0,1.019,0.709,1.868,1.658,2.094v-4.188C4.551,81.132,3.842,81.981,3.842,83z"/>
	<path fill="none" d="M15.842,622c0,1.02,0.709,1.867,1.658,2.094v-4.188C16.551,620.133,15.842,620.982,15.842,622z"/>
	<path fill="none" d="M20.158,377c0-1.02-0.709-1.867-1.658-2.095v4.188C19.449,378.867,20.158,378.02,20.158,377z"/>
	<path fill="none" d="M15.842,447c0,1.02,0.709,1.867,1.658,2.094v-4.188C16.551,445.133,15.842,445.982,15.842,447z"/>
	<path fill="none" d="M20.158,412c0-1.02-0.709-1.867-1.658-2.095v4.188C19.449,413.867,20.158,413.02,20.158,412z"/>
	<path fill="none" d="M3.842,9c0,1.019,0.709,1.868,1.658,2.094V6.906C4.551,7.132,3.842,7.981,3.842,9z"/>
	<path fill="none" d="M15.842,412c0,1.02,0.709,1.867,1.658,2.094v-4.188C16.551,410.133,15.842,410.982,15.842,412z"/>
	<path fill="none" d="M20.158,482c0-1.02-0.709-1.867-1.658-2.095v4.188C19.449,483.867,20.158,483.02,20.158,482z"/>
	<path fill="none" d="M20.158,447c0-1.02-0.709-1.867-1.658-2.095v4.188C19.449,448.867,20.158,448.02,20.158,447z"/>
	<path fill="none" d="M15.842,517c0,1.02,0.709,1.867,1.658,2.094v-4.188C16.551,515.133,15.842,515.982,15.842,517z"/>
	<path fill="none" d="M20.158,517c0-1.02-0.709-1.867-1.658-2.095v4.188C19.449,518.867,20.158,518.02,20.158,517z"/>
	<path fill="none" d="M15.842,482c0,1.02,0.709,1.867,1.658,2.094v-4.188C16.551,480.133,15.842,480.982,15.842,482z"/>
	<path fill="none" d="M8.158,83c0-1.02-0.708-1.868-1.658-2.095v4.188C7.45,84.867,8.158,84.019,8.158,83z"/>
	<path fill="none" d="M20.158,202c0-1.021-0.709-1.868-1.658-2.095v4.188C19.449,203.866,20.158,203.019,20.158,202z"/>
	<path fill="none" d="M15.842,202c0,1.019,0.709,1.866,1.658,2.094v-4.188C16.551,200.132,15.842,200.981,15.842,202z"/>
	<path fill="none" d="M15.842,97c0,1.019,0.709,1.868,1.658,2.094v-4.188C16.551,95.132,15.842,95.981,15.842,97z"/>
	<path fill="none" d="M15.842,237c0,1.019,0.709,1.866,1.658,2.094v-4.188C16.551,235.132,15.842,235.981,15.842,237z"/>
	<path fill="none" d="M20.158,237c0-1.021-0.709-1.868-1.658-2.095v4.188C19.449,238.866,20.158,238.019,20.158,237z"/>
	<path fill="none" d="M20.158,167c0-1.021-0.709-1.868-1.658-2.095v4.188C19.449,168.866,20.158,168.019,20.158,167z"/>
	<path fill="none" d="M15.842,132c0,1.019,0.709,1.867,1.658,2.094v-4.188C16.551,130.132,15.842,130.981,15.842,132z"/>
	<path fill="none" d="M15.842,272c0,1.019,0.709,1.866,1.658,2.094v-4.188C16.551,270.132,15.842,270.981,15.842,272z"/>
	<path fill="none" d="M20.158,97c0-1.02-0.709-1.868-1.658-2.095v4.188C19.449,98.867,20.158,98.019,20.158,97z"/>
	<path fill="none" d="M15.842,167c0,1.019,0.709,1.866,1.658,2.094v-4.188C16.551,165.132,15.842,165.981,15.842,167z"/>
	<path fill="none" d="M20.158,132c0-1.021-0.709-1.868-1.658-2.095v4.188C19.449,133.867,20.158,133.019,20.158,132z"/>
	<path fill="none" d="M20.158,657c0-1.02-0.709-1.867-1.658-2.095v4.188C19.449,658.867,20.158,658.02,20.158,657z"/>
	<path fill="none" d="M27.842,564c0,1.02,0.709,1.867,1.658,2.094v-4.188C28.551,562.133,27.842,562.982,27.842,564z"/>
	<path fill="none" d="M20.158,342c0-1.021-0.709-1.868-1.658-2.095v4.188C19.449,343.866,20.158,343.019,20.158,342z"/>
	<path fill="none" d="M15.842,342c0,1.019,0.709,1.866,1.658,2.094v-4.188C16.551,340.132,15.842,340.981,15.842,342z"/>
	<path fill="none" d="M20.158,272c0-1.021-0.709-1.868-1.658-2.095v4.188C19.449,273.866,20.158,273.019,20.158,272z"/>
	<path fill="none" d="M15.842,657c0,1.02,0.709,1.867,1.658,2.094v-4.188C16.551,655.133,15.842,655.982,15.842,657z"/>
	<path fill="none" d="M3.842,120c0,1.019,0.709,1.867,1.658,2.094v-4.188C4.551,118.132,3.842,118.981,3.842,120z"/>
	<path fill="none" d="M15.842,307c0,1.019,0.709,1.866,1.658,2.094v-4.188C16.551,305.132,15.842,305.981,15.842,307z"/>
	<path fill="none" d="M20.158,307c0-1.021-0.709-1.868-1.658-2.095v4.188C19.449,308.866,20.158,308.019,20.158,307z"/>
	<path fill="none" d="M32.158,379c0-1.02-0.709-1.867-1.658-2.095v4.188C31.449,380.867,32.158,380.02,32.158,379z"/>
	<path fill="none" d="M27.842,379c0,1.02,0.709,1.867,1.658,2.094v-4.188C28.551,377.133,27.842,377.982,27.842,379z"/>
	<path fill="none" d="M15.842,377c0,1.02,0.709,1.867,1.658,2.094v-4.188C16.551,375.133,15.842,375.982,15.842,377z"/>
	<path fill="none" d="M32.158,194c0-1.021-0.709-1.868-1.658-2.095v4.188C31.449,195.866,32.158,195.019,32.158,194z"/>
	<path fill="none" d="M27.842,83c0,1.019,0.709,1.868,1.658,2.094v-4.188C28.551,81.132,27.842,81.981,27.842,83z"/>
	<path fill="none" d="M27.842,157c0,1.019,0.709,1.866,1.658,2.094v-4.188C28.551,155.132,27.842,155.981,27.842,157z"/>
	<path fill="none" d="M27.842,305c0,1.019,0.709,1.866,1.658,2.094v-4.188C28.551,303.132,27.842,303.981,27.842,305z"/>
	<path fill="none" d="M32.158,305c0-1.021-0.709-1.868-1.658-2.095v4.188C31.449,306.866,32.158,306.019,32.158,305z"/>
	<path fill="none" d="M32.158,120c0-1.021-0.709-1.868-1.658-2.095v4.188C31.449,121.867,32.158,121.019,32.158,120z"/>
	<path fill="none" d="M32.158,157c0-1.021-0.709-1.868-1.658-2.095v4.188C31.449,158.866,32.158,158.019,32.158,157z"/>
	<path fill="none" d="M27.842,46c0,1.019,0.709,1.868,1.658,2.094v-4.188C28.551,44.132,27.842,44.981,27.842,46z"/>
	<path fill="none" d="M32.158,527c0-1.02-0.709-1.867-1.658-2.095v4.188C31.449,528.867,32.158,528.02,32.158,527z"/>
	<path fill="none" d="M27.842,120c0,1.019,0.709,1.867,1.658,2.094v-4.188C28.551,118.132,27.842,118.981,27.842,120z"/>
	<path fill="none" d="M27.842,194c0,1.019,0.709,1.866,1.658,2.094v-4.188C28.551,192.132,27.842,192.981,27.842,194z"/>
	<path fill="none" d="M27.842,268c0,1.019,0.709,1.866,1.658,2.094v-4.188C28.551,266.132,27.842,266.981,27.842,268z"/>
	<path fill="none" d="M27.842,9c0,1.019,0.709,1.868,1.658,2.094V6.906C28.551,7.132,27.842,7.981,27.842,9z"/>
	<path fill="none" d="M32.158,46c0-1.02-0.709-1.868-1.658-2.095v4.188C31.449,47.867,32.158,47.019,32.158,46z"/>
	<path fill="none" d="M32.158,268c0-1.021-0.709-1.868-1.658-2.095v4.188C31.449,269.866,32.158,269.019,32.158,268z"/>
	<path fill="none" d="M27.842,490c0,1.02,0.709,1.867,1.658,2.094v-4.188C28.551,488.133,27.842,488.982,27.842,490z"/>
	<path fill="none" d="M32.158,453c0-1.02-0.709-1.867-1.658-2.095v4.188C31.449,454.867,32.158,454.02,32.158,453z"/>
	<path fill="none" d="M27.842,527c0,1.02,0.709,1.867,1.658,2.094v-4.188C28.551,525.133,27.842,525.982,27.842,527z"/>
	<path fill="none" d="M32.158,342c0-1.021-0.709-1.868-1.658-2.095v4.188C31.449,343.866,32.158,343.019,32.158,342z"/>
	<path fill="none" d="M27.842,453c0,1.02,0.709,1.867,1.658,2.094v-4.188C28.551,451.133,27.842,451.982,27.842,453z"/>
	<path fill="none" d="M32.158,83c0-1.02-0.709-1.868-1.658-2.095v4.188C31.449,84.867,32.158,84.019,32.158,83z"/>
	<path fill="none" d="M32.158,9c0-1.02-0.709-1.868-1.658-2.095v4.188C31.449,10.867,32.158,10.019,32.158,9z"/>
	<path fill="none" d="M27.842,342c0,1.019,0.709,1.866,1.658,2.094v-4.188C28.551,340.132,27.842,340.981,27.842,342z"/>
	<path fill="none" d="M32.158,231c0-1.021-0.709-1.868-1.658-2.095v4.188C31.449,232.866,32.158,232.019,32.158,231z"/>
	<path fill="none" d="M32.158,490c0-1.02-0.709-1.867-1.658-2.095v4.188C31.449,491.867,32.158,491.02,32.158,490z"/>
	<path fill="none" d="M27.842,231c0,1.019,0.709,1.866,1.658,2.094v-4.188C28.551,229.132,27.842,229.981,27.842,231z"/>
	<path fill="#2D2D2D" d="M6.5,5.892V3c0-0.276-0.224-0.5-0.5-0.5C5.725,2.5,5.5,2.724,5.5,3v2.892c0.164-0.025,0.329-0.05,0.5-0.05
		C6.172,5.842,6.336,5.865,6.5,5.892z"/>
	<path fill="#2D2D2D" d="M5.5,12.108V33c0,0.275,0.225,0.5,0.5,0.5c0.276,0,0.5-0.225,0.5-0.5V12.108
		c-0.164,0.026-0.328,0.051-0.5,0.051C5.829,12.158,5.664,12.134,5.5,12.108z"/>
	<path fill="#2D2D2D" d="M18.5,23.892V3c0-0.276-0.224-0.5-0.5-0.5c-0.275,0-0.5,0.224-0.5,0.5v20.892
		c0.164-0.025,0.329-0.05,0.5-0.05C18.172,23.842,18.336,23.865,18.5,23.892z"/>
	<path fill="#2D2D2D" d="M17.5,30.108V33c0,0.275,0.225,0.5,0.5,0.5c0.276,0,0.5-0.225,0.5-0.5v-2.893
		c-0.164,0.026-0.328,0.051-0.5,0.051C17.829,30.158,17.664,30.134,17.5,30.108z"/>
	<path fill="#2D2D2D" d="M30.5,5.892V3c0-0.276-0.224-0.5-0.5-0.5c-0.275,0-0.5,0.224-0.5,0.5v2.892
		c0.164-0.025,0.329-0.05,0.5-0.05C30.172,5.842,30.336,5.865,30.5,5.892z"/>
	<path fill="#2D2D2D" d="M29.5,12.108V33c0,0.275,0.225,0.5,0.5,0.5c0.276,0,0.5-0.225,0.5-0.5V12.108
		c-0.164,0.026-0.328,0.051-0.5,0.051C29.829,12.158,29.664,12.134,29.5,12.108z"/>
	<path fill="#2D2D2D" d="M6.5,5.892v1.014C7.45,7.133,8.158,7.981,8.158,9c0,1.019-0.708,1.868-1.658,2.094v1.014
		C8.004,11.866,9.158,10.57,9.158,9C9.158,7.43,8.004,6.134,6.5,5.892z"/>
	<path fill="#2D2D2D" d="M3.842,9c0-1.02,0.709-1.868,1.658-2.095V5.892C3.997,6.134,2.842,7.43,2.842,9
		c0,1.569,1.155,2.866,2.658,3.107v-1.014C4.551,10.867,3.842,10.019,3.842,9z"/>
	<path fill="#2D2D2D" d="M6,6.842c0.174,0,0.34,0.026,0.5,0.063V5.892C6.336,5.866,6.172,5.842,6,5.842
		c-0.171,0-0.336,0.024-0.5,0.05v1.014C5.661,6.867,5.827,6.842,6,6.842z"/>
	<path fill="#2D2D2D" d="M6,11.158c-0.173,0-0.339-0.026-0.5-0.064v1.014c0.164,0.026,0.329,0.051,0.5,0.051
		c0.172,0,0.336-0.024,0.5-0.051v-1.014C6.34,11.132,6.174,11.158,6,11.158z"/>
	<path fill="#2D2D2D" d="M29.5,12.108v-1.014c-0.949-0.227-1.658-1.075-1.658-2.094c0-1.02,0.709-1.868,1.658-2.095V5.892
		C27.997,6.134,26.842,7.43,26.842,9C26.842,10.57,27.997,11.865,29.5,12.108z"/>
	<path fill="#2D2D2D" d="M32.158,9c0,1.019-0.709,1.868-1.658,2.094v1.014c1.504-0.241,2.658-1.538,2.658-3.107
		c0-1.57-1.154-2.866-2.658-3.108v1.014C31.449,7.132,32.158,7.981,32.158,9z"/>
	<path fill="#2D2D2D" d="M30,6.842c0.174,0,0.34,0.026,0.5,0.063V5.892c-0.164-0.025-0.328-0.05-0.5-0.05
		c-0.171,0-0.336,0.024-0.5,0.05v1.014C29.661,6.867,29.827,6.842,30,6.842z"/>
	<path fill="#2D2D2D" d="M30,11.158c-0.173,0-0.339-0.026-0.5-0.064v1.014c0.164,0.026,0.329,0.051,0.5,0.051
		c0.172,0,0.336-0.024,0.5-0.051v-1.014C30.34,11.132,30.174,11.158,30,11.158z"/>
	<path fill="#2D2D2D" d="M15.842,27c0-1.02,0.709-1.868,1.658-2.095v-1.014c-1.503,0.242-2.658,1.538-2.658,3.108
		c0,1.569,1.155,2.866,2.658,3.107v-1.014C16.551,28.867,15.842,28.019,15.842,27z"/>
	<path fill="#2D2D2D" d="M18.5,23.892v1.014c0.949,0.228,1.658,1.075,1.658,2.095c0,1.019-0.709,1.868-1.658,2.094v1.014
		c1.504-0.241,2.658-1.538,2.658-3.107C21.158,25.43,20.004,24.134,18.5,23.892z"/>
	<path fill="#2D2D2D" d="M18,29.158c-0.173,0-0.339-0.026-0.5-0.064v1.014c0.164,0.026,0.329,0.051,0.5,0.051
		c0.172,0,0.336-0.024,0.5-0.051v-1.014C18.34,29.132,18.174,29.158,18,29.158z"/>
	<path fill="#2D2D2D" d="M18,24.842c0.174,0,0.34,0.026,0.5,0.063v-1.014c-0.164-0.025-0.328-0.05-0.5-0.05
		c-0.171,0-0.336,0.024-0.5,0.05v1.014C17.661,24.867,17.827,24.842,18,24.842z"/>
	<path fill="#2D2D2D" d="M5.5,49.108V69c0,0.275,0.225,0.5,0.5,0.5c0.276,0,0.5-0.225,0.5-0.5V49.108
		c-0.164,0.026-0.328,0.051-0.5,0.051C5.829,49.158,5.664,49.134,5.5,49.108z"/>
	<path fill="#2D2D2D" d="M6.5,42.892V39c0-0.276-0.224-0.5-0.5-0.5c-0.275,0-0.5,0.224-0.5,0.5v3.892
		c0.164-0.025,0.329-0.05,0.5-0.05C6.172,42.842,6.336,42.865,6.5,42.892z"/>
	<path fill="#2D2D2D" d="M17.5,65.108V69c0,0.275,0.225,0.5,0.5,0.5c0.276,0,0.5-0.225,0.5-0.5v-3.893
		c-0.164,0.026-0.328,0.051-0.5,0.051C17.829,65.158,17.664,65.134,17.5,65.108z"/>
	<path fill="#2D2D2D" d="M18.5,58.892V39c0-0.276-0.224-0.5-0.5-0.5c-0.275,0-0.5,0.224-0.5,0.5v19.892
		c0.164-0.025,0.329-0.05,0.5-0.05C18.172,58.842,18.336,58.865,18.5,58.892z"/>
	<path fill="#2D2D2D" d="M29.5,49.108V69c0,0.275,0.225,0.5,0.5,0.5c0.276,0,0.5-0.225,0.5-0.5V49.108
		c-0.164,0.026-0.328,0.051-0.5,0.051C29.829,49.158,29.664,49.134,29.5,49.108z"/>
	<path fill="#2D2D2D" d="M30.5,42.892V39c0-0.276-0.224-0.5-0.5-0.5c-0.275,0-0.5,0.224-0.5,0.5v3.892
		c0.164-0.025,0.329-0.05,0.5-0.05C30.172,42.842,30.336,42.865,30.5,42.892z"/>
	<path fill="#2D2D2D" d="M6.5,42.892v1.014C7.45,44.133,8.158,44.981,8.158,46c0,1.019-0.708,1.868-1.658,2.094v1.014
		C8.004,48.866,9.158,47.57,9.158,46C9.158,44.43,8.004,43.134,6.5,42.892z"/>
	<path fill="#2D2D2D" d="M3.842,46c0-1.02,0.709-1.868,1.658-2.095v-1.014C3.997,43.134,2.842,44.43,2.842,46
		c0,1.569,1.155,2.866,2.658,3.107v-1.014C4.551,47.867,3.842,47.019,3.842,46z"/>
	<path fill="#2D2D2D" d="M6,48.158c-0.173,0-0.339-0.026-0.5-0.064v1.014c0.164,0.026,0.329,0.051,0.5,0.051
		c0.172,0,0.336-0.024,0.5-0.051v-1.014C6.34,48.132,6.174,48.158,6,48.158z"/>
	<path fill="#2D2D2D" d="M6,43.842c0.174,0,0.34,0.026,0.5,0.063v-1.014c-0.164-0.025-0.328-0.05-0.5-0.05
		c-0.171,0-0.336,0.024-0.5,0.05v1.014C5.661,43.867,5.827,43.842,6,43.842z"/>
	<path fill="#2D2D2D" d="M27.842,46c0-1.02,0.709-1.868,1.658-2.095v-1.014c-1.503,0.242-2.658,1.538-2.658,3.108
		c0,1.569,1.155,2.866,2.658,3.107v-1.014C28.551,47.867,27.842,47.019,27.842,46z"/>
	<path fill="#2D2D2D" d="M30.5,42.892v1.014c0.949,0.228,1.658,1.075,1.658,2.095c0,1.019-0.709,1.868-1.658,2.094v1.014
		c1.504-0.241,2.658-1.538,2.658-3.107C33.158,44.43,32.004,43.134,30.5,42.892z"/>
	<path fill="#2D2D2D" d="M30,48.158c-0.173,0-0.339-0.026-0.5-0.064v1.014c0.164,0.026,0.329,0.051,0.5,0.051
		c0.172,0,0.336-0.024,0.5-0.051v-1.014C30.34,48.132,30.174,48.158,30,48.158z"/>
	<path fill="#2D2D2D" d="M30,43.842c0.174,0,0.34,0.026,0.5,0.063v-1.014c-0.164-0.025-0.328-0.05-0.5-0.05
		c-0.171,0-0.336,0.024-0.5,0.05v1.014C29.661,43.867,29.827,43.842,30,43.842z"/>
	<path fill="#2D2D2D" d="M15.842,62c0-1.02,0.709-1.868,1.658-2.095v-1.014c-1.503,0.242-2.658,1.538-2.658,3.108
		c0,1.569,1.155,2.866,2.658,3.107v-1.014C16.551,63.867,15.842,63.019,15.842,62z"/>
	<path fill="#2D2D2D" d="M18.5,58.892v1.014c0.949,0.228,1.658,1.075,1.658,2.095c0,1.019-0.709,1.868-1.658,2.094v1.014
		c1.504-0.241,2.658-1.538,2.658-3.107C21.158,60.43,20.004,59.134,18.5,58.892z"/>
	<path fill="#2D2D2D" d="M18,59.842c0.174,0,0.34,0.026,0.5,0.063v-1.014c-0.164-0.025-0.328-0.05-0.5-0.05
		c-0.171,0-0.336,0.024-0.5,0.05v1.014C17.661,59.867,17.827,59.842,18,59.842z"/>
	<path fill="#2D2D2D" d="M18,64.158c-0.173,0-0.339-0.026-0.5-0.064v1.014c0.164,0.026,0.329,0.051,0.5,0.051
		c0.172,0,0.336-0.024,0.5-0.051v-1.014C18.34,64.132,18.174,64.158,18,64.158z"/>
	<path fill="#2D2D2D" d="M5.5,86.108V105c0,0.275,0.225,0.5,0.5,0.5c0.276,0,0.5-0.225,0.5-0.5V86.108
		c-0.164,0.026-0.328,0.051-0.5,0.051C5.829,86.158,5.664,86.134,5.5,86.108z"/>
	<path fill="#2D2D2D" d="M6.5,79.892V75c0-0.276-0.224-0.5-0.5-0.5c-0.275,0-0.5,0.224-0.5,0.5v4.892
		c0.164-0.025,0.329-0.05,0.5-0.05C6.172,79.842,6.336,79.865,6.5,79.892z"/>
	<path fill="#2D2D2D" d="M18.5,93.892V75c0-0.276-0.224-0.5-0.5-0.5c-0.275,0-0.5,0.224-0.5,0.5v18.892
		c0.164-0.025,0.329-0.05,0.5-0.05C18.172,93.842,18.336,93.865,18.5,93.892z"/>
	<path fill="#2D2D2D" d="M17.5,100.108V105c0,0.275,0.225,0.5,0.5,0.5c0.276,0,0.5-0.225,0.5-0.5v-4.893
		c-0.164,0.026-0.328,0.051-0.5,0.051C17.829,100.158,17.664,100.134,17.5,100.108z"/>
	<path fill="#2D2D2D" d="M30.5,79.892V75c0-0.276-0.224-0.5-0.5-0.5c-0.275,0-0.5,0.224-0.5,0.5v4.892
		c0.164-0.025,0.329-0.05,0.5-0.05C30.172,79.842,30.336,79.865,30.5,79.892z"/>
	<path fill="#2D2D2D" d="M29.5,86.108V105c0,0.275,0.225,0.5,0.5,0.5c0.276,0,0.5-0.225,0.5-0.5V86.108
		c-0.164,0.026-0.328,0.051-0.5,0.051C29.829,86.158,29.664,86.134,29.5,86.108z"/>
	<path fill="#2D2D2D" d="M3.842,83c0-1.02,0.709-1.868,1.658-2.095v-1.014C3.997,80.134,2.842,81.43,2.842,83
		c0,1.569,1.155,2.866,2.658,3.107v-1.014C4.551,84.867,3.842,84.019,3.842,83z"/>
	<path fill="#2D2D2D" d="M6.5,79.892v1.014C7.45,81.133,8.158,81.981,8.158,83c0,1.019-0.708,1.868-1.658,2.094v1.014
		C8.004,85.866,9.158,84.57,9.158,83C9.158,81.43,8.004,80.134,6.5,79.892z"/>
	<path fill="#2D2D2D" d="M6,85.158c-0.173,0-0.339-0.026-0.5-0.064v1.014c0.164,0.026,0.329,0.051,0.5,0.051
		c0.172,0,0.336-0.024,0.5-0.051v-1.014C6.34,85.132,6.174,85.158,6,85.158z"/>
	<path fill="#2D2D2D" d="M6,80.842c0.174,0,0.34,0.026,0.5,0.063v-1.014c-0.164-0.025-0.328-0.05-0.5-0.05
		c-0.171,0-0.336,0.024-0.5,0.05v1.014C5.661,80.867,5.827,80.842,6,80.842z"/>
	<path fill="#2D2D2D" d="M27.842,83c0-1.02,0.709-1.868,1.658-2.095v-1.014c-1.503,0.242-2.658,1.538-2.658,3.108
		c0,1.569,1.155,2.866,2.658,3.107v-1.014C28.551,84.867,27.842,84.019,27.842,83z"/>
	<path fill="#2D2D2D" d="M30.5,79.892v1.014c0.949,0.228,1.658,1.075,1.658,2.095c0,1.019-0.709,1.868-1.658,2.094v1.014
		c1.504-0.241,2.658-1.538,2.658-3.107C33.158,81.43,32.004,80.134,30.5,79.892z"/>
	<path fill="#2D2D2D" d="M30,85.158c-0.173,0-0.339-0.026-0.5-0.064v1.014c0.164,0.026,0.329,0.051,0.5,0.051
		c0.172,0,0.336-0.024,0.5-0.051v-1.014C30.34,85.132,30.174,85.158,30,85.158z"/>
	<path fill="#2D2D2D" d="M30,80.842c0.174,0,0.34,0.026,0.5,0.063v-1.014c-0.164-0.025-0.328-0.05-0.5-0.05
		c-0.171,0-0.336,0.024-0.5,0.05v1.014C29.661,80.867,29.827,80.842,30,80.842z"/>
	<path fill="#2D2D2D" d="M15.842,97c0-1.02,0.709-1.868,1.658-2.095v-1.014c-1.503,0.242-2.658,1.538-2.658,3.108
		c0,1.569,1.155,2.866,2.658,3.107v-1.014C16.551,98.867,15.842,98.019,15.842,97z"/>
	<path fill="#2D2D2D" d="M18.5,93.892v1.014c0.949,0.228,1.658,1.075,1.658,2.095c0,1.019-0.709,1.868-1.658,2.094v1.014
		c1.504-0.241,2.658-1.538,2.658-3.107C21.158,95.43,20.004,94.134,18.5,93.892z"/>
	<path fill="#2D2D2D" d="M18,94.842c0.174,0,0.34,0.026,0.5,0.063v-1.014c-0.164-0.025-0.328-0.05-0.5-0.05
		c-0.171,0-0.336,0.024-0.5,0.05v1.014C17.661,94.867,17.827,94.842,18,94.842z"/>
	<path fill="#2D2D2D" d="M18,99.158c-0.173,0-0.339-0.026-0.5-0.064v1.014c0.164,0.026,0.329,0.051,0.5,0.051
		c0.172,0,0.336-0.024,0.5-0.051v-1.014C18.34,99.132,18.174,99.158,18,99.158z"/>
	<path fill="#2D2D2D" d="M5.5,123.108v17.894c0,0.275,0.225,0.5,0.5,0.5c0.276,0,0.5-0.225,0.5-0.5v-17.894
		c-0.164,0.026-0.328,0.052-0.5,0.052C5.829,123.159,5.664,123.134,5.5,123.108z"/>
	<path fill="#2D2D2D" d="M6.5,116.893V111c0-0.276-0.224-0.5-0.5-0.5c-0.275,0-0.5,0.224-0.5,0.5v5.893
		c0.164-0.025,0.329-0.051,0.5-0.051C6.172,116.842,6.336,116.866,6.5,116.893z"/>
	<path fill="#2D2D2D" d="M18.5,128.893V111c0-0.276-0.224-0.5-0.5-0.5c-0.275,0-0.5,0.224-0.5,0.5v17.893
		c0.164-0.025,0.329-0.051,0.5-0.051C18.172,128.842,18.336,128.866,18.5,128.893z"/>
	<path fill="#2D2D2D" d="M17.5,135.108v5.894c0,0.275,0.225,0.5,0.5,0.5c0.276,0,0.5-0.225,0.5-0.5v-5.894
		c-0.164,0.026-0.328,0.052-0.5,0.052C17.829,135.159,17.664,135.134,17.5,135.108z"/>
	<path fill="#2D2D2D" d="M29.5,123.108v17.894c0,0.275,0.225,0.5,0.5,0.5c0.276,0,0.5-0.225,0.5-0.5v-17.894
		c-0.164,0.026-0.328,0.052-0.5,0.052C29.829,123.159,29.664,123.134,29.5,123.108z"/>
	<path fill="#2D2D2D" d="M30.5,116.893V111c0-0.276-0.224-0.5-0.5-0.5c-0.275,0-0.5,0.224-0.5,0.5v5.893
		c0.164-0.025,0.329-0.051,0.5-0.051C30.172,116.842,30.336,116.866,30.5,116.893z"/>
	<path fill="#2D2D2D" d="M6.5,116.893v1.015c0.95,0.226,1.658,1.073,1.658,2.094c0,1.019-0.708,1.867-1.658,2.094v1.014
		c1.504-0.24,2.658-1.537,2.658-3.106C9.158,118.432,8.004,117.134,6.5,116.893z"/>
	<path fill="#2D2D2D" d="M3.842,120c0-1.021,0.709-1.868,1.658-2.095v-1.014c-1.503,0.241-2.658,1.537-2.658,3.107
		c0,1.569,1.155,2.865,2.658,3.106v-1.014C4.551,121.867,3.842,121.019,3.842,120z"/>
	<path fill="#2D2D2D" d="M6,122.158c-0.173,0-0.339-0.025-0.5-0.064v1.014c0.164,0.026,0.329,0.052,0.5,0.052
		c0.172,0,0.336-0.024,0.5-0.052v-1.014C6.34,122.133,6.174,122.158,6,122.158z"/>
	<path fill="#2D2D2D" d="M6,117.842c0.174,0,0.34,0.025,0.5,0.063v-1.014c-0.164-0.025-0.328-0.051-0.5-0.051
		c-0.171,0-0.336,0.023-0.5,0.051v1.014C5.661,117.867,5.827,117.842,6,117.842z"/>
	<path fill="#2D2D2D" d="M30.5,116.893v1.015c0.949,0.226,1.658,1.073,1.658,2.094c0,1.019-0.709,1.867-1.658,2.094v1.014
		c1.504-0.24,2.658-1.537,2.658-3.106C33.158,118.432,32.004,117.134,30.5,116.893z"/>
	<path fill="#2D2D2D" d="M27.842,120c0-1.021,0.709-1.868,1.658-2.095v-1.014c-1.503,0.241-2.658,1.537-2.658,3.107
		c0,1.569,1.155,2.865,2.658,3.106v-1.014C28.551,121.867,27.842,121.019,27.842,120z"/>
	<path fill="#2D2D2D" d="M30,117.842c0.174,0,0.34,0.025,0.5,0.063v-1.014c-0.164-0.025-0.328-0.051-0.5-0.051
		c-0.171,0-0.336,0.023-0.5,0.051v1.014C29.661,117.867,29.827,117.842,30,117.842z"/>
	<path fill="#2D2D2D" d="M30,122.158c-0.173,0-0.339-0.025-0.5-0.064v1.014c0.164,0.026,0.329,0.052,0.5,0.052
		c0.172,0,0.336-0.024,0.5-0.052v-1.014C30.34,122.133,30.174,122.158,30,122.158z"/>
	<path fill="#2D2D2D" d="M18.5,128.893v1.015c0.949,0.226,1.658,1.073,1.658,2.094c0,1.019-0.709,1.867-1.658,2.094v1.014
		c1.504-0.24,2.658-1.537,2.658-3.106C21.158,130.432,20.004,129.134,18.5,128.893z"/>
	<path fill="#2D2D2D" d="M15.842,132c0-1.021,0.709-1.868,1.658-2.095v-1.014c-1.503,0.241-2.658,1.537-2.658,3.107
		c0,1.569,1.155,2.865,2.658,3.106v-1.014C16.551,133.867,15.842,133.019,15.842,132z"/>
	<path fill="#2D2D2D" d="M18,134.158c-0.173,0-0.339-0.025-0.5-0.064v1.014c0.164,0.026,0.329,0.052,0.5,0.052
		c0.172,0,0.336-0.024,0.5-0.052v-1.014C18.34,134.133,18.174,134.158,18,134.158z"/>
	<path fill="#2D2D2D" d="M18,129.842c0.174,0,0.34,0.025,0.5,0.063v-1.014c-0.164-0.025-0.328-0.051-0.5-0.051
		c-0.171,0-0.336,0.023-0.5,0.051v1.014C17.661,129.867,17.827,129.842,18,129.842z"/>
	<path fill="#2D2D2D" d="M5.5,160.108v16.894c0,0.275,0.225,0.5,0.5,0.5c0.276,0,0.5-0.225,0.5-0.5v-16.894
		c-0.164,0.026-0.328,0.051-0.5,0.051C5.829,160.158,5.664,160.134,5.5,160.108z"/>
	<path fill="#2D2D2D" d="M6.5,153.893V147c0-0.276-0.224-0.5-0.5-0.5c-0.275,0-0.5,0.224-0.5,0.5v6.893
		c0.164-0.026,0.329-0.051,0.5-0.051C6.172,153.842,6.336,153.865,6.5,153.893z"/>
	<path fill="#2D2D2D" d="M18.5,163.893V147c0-0.276-0.224-0.5-0.5-0.5c-0.275,0-0.5,0.224-0.5,0.5v16.893
		c0.164-0.026,0.329-0.051,0.5-0.051C18.172,163.842,18.336,163.865,18.5,163.893z"/>
	<path fill="#2D2D2D" d="M17.5,170.108v6.894c0,0.275,0.225,0.5,0.5,0.5c0.276,0,0.5-0.225,0.5-0.5v-6.894
		c-0.164,0.026-0.328,0.051-0.5,0.051C17.829,170.158,17.664,170.134,17.5,170.108z"/>
	<path fill="#2D2D2D" d="M29.5,160.108v16.894c0,0.275,0.225,0.5,0.5,0.5c0.276,0,0.5-0.225,0.5-0.5v-16.894
		c-0.164,0.026-0.328,0.051-0.5,0.051C29.829,160.158,29.664,160.134,29.5,160.108z"/>
	<path fill="#2D2D2D" d="M30.5,153.893V147c0-0.276-0.224-0.5-0.5-0.5c-0.275,0-0.5,0.224-0.5,0.5v6.893
		c0.164-0.026,0.329-0.051,0.5-0.051C30.172,153.842,30.336,153.865,30.5,153.893z"/>
	<path fill="#2D2D2D" d="M3.842,157c0-1.021,0.709-1.868,1.658-2.095v-1.014c-1.503,0.241-2.658,1.537-2.658,3.106
		c0,1.57,1.155,2.866,2.658,3.107v-1.014C4.551,158.866,3.842,158.019,3.842,157z"/>
	<path fill="#2D2D2D" d="M6.5,153.893v1.014c0.95,0.227,1.658,1.074,1.658,2.095c0,1.019-0.708,1.866-1.658,2.094v1.014
		c1.504-0.241,2.658-1.537,2.658-3.106C9.158,155.432,8.004,154.134,6.5,153.893z"/>
	<path fill="#2D2D2D" d="M6,154.842c0.174,0,0.34,0.024,0.5,0.063v-1.014c-0.164-0.026-0.328-0.051-0.5-0.051
		c-0.171,0-0.336,0.023-0.5,0.051v1.014C5.661,154.866,5.827,154.842,6,154.842z"/>
	<path fill="#2D2D2D" d="M6,159.157c-0.173,0-0.339-0.024-0.5-0.063v1.014c0.164,0.026,0.329,0.051,0.5,0.051
		c0.172,0,0.336-0.023,0.5-0.051v-1.014C6.34,159.133,6.174,159.157,6,159.157z"/>
	<path fill="#2D2D2D" d="M30.5,153.893v1.014c0.949,0.227,1.658,1.074,1.658,2.095c0,1.019-0.709,1.866-1.658,2.094v1.014
		c1.504-0.241,2.658-1.537,2.658-3.106C33.158,155.432,32.004,154.134,30.5,153.893z"/>
	<path fill="#2D2D2D" d="M27.842,157c0-1.021,0.709-1.868,1.658-2.095v-1.014c-1.503,0.241-2.658,1.537-2.658,3.106
		c0,1.57,1.155,2.866,2.658,3.107v-1.014C28.551,158.866,27.842,158.019,27.842,157z"/>
	<path fill="#2D2D2D" d="M30,154.842c0.174,0,0.34,0.024,0.5,0.063v-1.014c-0.164-0.026-0.328-0.051-0.5-0.051
		c-0.171,0-0.336,0.023-0.5,0.051v1.014C29.661,154.866,29.827,154.842,30,154.842z"/>
	<path fill="#2D2D2D" d="M30,159.157c-0.173,0-0.339-0.024-0.5-0.063v1.014c0.164,0.026,0.329,0.051,0.5,0.051
		c0.172,0,0.336-0.023,0.5-0.051v-1.014C30.34,159.133,30.174,159.157,30,159.157z"/>
	<path fill="#2D2D2D" d="M18.5,163.893v1.014c0.949,0.227,1.658,1.074,1.658,2.095c0,1.019-0.709,1.866-1.658,2.094v1.014
		c1.504-0.241,2.658-1.537,2.658-3.106C21.158,165.432,20.004,164.134,18.5,163.893z"/>
	<path fill="#2D2D2D" d="M15.842,167c0-1.021,0.709-1.868,1.658-2.095v-1.014c-1.503,0.241-2.658,1.537-2.658,3.106
		c0,1.57,1.155,2.866,2.658,3.107v-1.014C16.551,168.866,15.842,168.019,15.842,167z"/>
	<path fill="#2D2D2D" d="M18,169.157c-0.173,0-0.339-0.024-0.5-0.063v1.014c0.164,0.026,0.329,0.051,0.5,0.051
		c0.172,0,0.336-0.023,0.5-0.051v-1.014C18.34,169.133,18.174,169.157,18,169.157z"/>
	<path fill="#2D2D2D" d="M18,164.842c0.174,0,0.34,0.024,0.5,0.063v-1.014c-0.164-0.026-0.328-0.051-0.5-0.051
		c-0.171,0-0.336,0.023-0.5,0.051v1.014C17.661,164.866,17.827,164.842,18,164.842z"/>
	<path fill="#2D2D2D" d="M6.5,190.893V183c0-0.276-0.224-0.5-0.5-0.5c-0.275,0-0.5,0.224-0.5,0.5v7.893
		c0.164-0.026,0.329-0.051,0.5-0.051C6.172,190.842,6.336,190.865,6.5,190.893z"/>
	<path fill="#2D2D2D" d="M5.5,197.108v15.894c0,0.275,0.225,0.5,0.5,0.5c0.276,0,0.5-0.225,0.5-0.5v-15.894
		c-0.164,0.026-0.328,0.051-0.5,0.051C5.829,197.158,5.664,197.134,5.5,197.108z"/>
	<path fill="#2D2D2D" d="M18.5,198.893V183c0-0.276-0.224-0.5-0.5-0.5c-0.275,0-0.5,0.224-0.5,0.5v15.893
		c0.164-0.026,0.329-0.051,0.5-0.051C18.172,198.842,18.336,198.865,18.5,198.893z"/>
	<path fill="#2D2D2D" d="M17.5,205.108v7.894c0,0.275,0.225,0.5,0.5,0.5c0.276,0,0.5-0.225,0.5-0.5v-7.894
		c-0.164,0.026-0.328,0.051-0.5,0.051C17.829,205.158,17.664,205.134,17.5,205.108z"/>
	<path fill="#2D2D2D" d="M29.5,197.108v15.894c0,0.275,0.225,0.5,0.5,0.5c0.276,0,0.5-0.225,0.5-0.5v-15.894
		c-0.164,0.026-0.328,0.051-0.5,0.051C29.829,197.158,29.664,197.134,29.5,197.108z"/>
	<path fill="#2D2D2D" d="M30.5,190.893V183c0-0.276-0.224-0.5-0.5-0.5c-0.275,0-0.5,0.224-0.5,0.5v7.893
		c0.164-0.026,0.329-0.051,0.5-0.051C30.172,190.842,30.336,190.865,30.5,190.893z"/>
	<path fill="#2D2D2D" d="M3.842,194c0-1.021,0.709-1.868,1.658-2.095v-1.014c-1.503,0.241-2.658,1.537-2.658,3.106
		c0,1.57,1.155,2.866,2.658,3.107v-1.014C4.551,195.866,3.842,195.019,3.842,194z"/>
	<path fill="#2D2D2D" d="M6.5,190.893v1.014c0.95,0.227,1.658,1.074,1.658,2.095c0,1.019-0.708,1.866-1.658,2.094v1.014
		c1.504-0.241,2.658-1.537,2.658-3.106C9.158,192.432,8.004,191.134,6.5,190.893z"/>
	<path fill="#2D2D2D" d="M6,196.157c-0.173,0-0.339-0.024-0.5-0.063v1.014c0.164,0.026,0.329,0.051,0.5,0.051
		c0.172,0,0.336-0.023,0.5-0.051v-1.014C6.34,196.133,6.174,196.157,6,196.157z"/>
	<path fill="#2D2D2D" d="M6,191.842c0.174,0,0.34,0.024,0.5,0.063v-1.014c-0.164-0.026-0.328-0.051-0.5-0.051
		c-0.171,0-0.336,0.023-0.5,0.051v1.014C5.661,191.866,5.827,191.842,6,191.842z"/>
	<path fill="#2D2D2D" d="M27.842,194c0-1.021,0.709-1.868,1.658-2.095v-1.014c-1.503,0.241-2.658,1.537-2.658,3.106
		c0,1.57,1.155,2.866,2.658,3.107v-1.014C28.551,195.866,27.842,195.019,27.842,194z"/>
	<path fill="#2D2D2D" d="M30.5,190.893v1.014c0.949,0.227,1.658,1.074,1.658,2.095c0,1.019-0.709,1.866-1.658,2.094v1.014
		c1.504-0.241,2.658-1.537,2.658-3.106C33.158,192.432,32.004,191.134,30.5,190.893z"/>
	<path fill="#2D2D2D" d="M30,196.157c-0.173,0-0.339-0.024-0.5-0.063v1.014c0.164,0.026,0.329,0.051,0.5,0.051
		c0.172,0,0.336-0.023,0.5-0.051v-1.014C30.34,196.133,30.174,196.157,30,196.157z"/>
	<path fill="#2D2D2D" d="M30,191.842c0.174,0,0.34,0.024,0.5,0.063v-1.014c-0.164-0.026-0.328-0.051-0.5-0.051
		c-0.171,0-0.336,0.023-0.5,0.051v1.014C29.661,191.866,29.827,191.842,30,191.842z"/>
	<path fill="#2D2D2D" d="M15.842,202c0-1.021,0.709-1.868,1.658-2.095v-1.014c-1.503,0.241-2.658,1.537-2.658,3.106
		c0,1.57,1.155,2.866,2.658,3.107v-1.014C16.551,203.866,15.842,203.019,15.842,202z"/>
	<path fill="#2D2D2D" d="M18.5,198.893v1.014c0.949,0.227,1.658,1.074,1.658,2.095c0,1.019-0.709,1.866-1.658,2.094v1.014
		c1.504-0.241,2.658-1.537,2.658-3.106C21.158,200.432,20.004,199.134,18.5,198.893z"/>
	<path fill="#2D2D2D" d="M18,204.157c-0.173,0-0.339-0.024-0.5-0.063v1.014c0.164,0.026,0.329,0.051,0.5,0.051
		c0.172,0,0.336-0.023,0.5-0.051v-1.014C18.34,204.133,18.174,204.157,18,204.157z"/>
	<path fill="#2D2D2D" d="M18,199.842c0.174,0,0.34,0.024,0.5,0.063v-1.014c-0.164-0.026-0.328-0.051-0.5-0.051
		c-0.171,0-0.336,0.023-0.5,0.051v1.014C17.661,199.866,17.827,199.842,18,199.842z"/>
	<path fill="#2D2D2D" d="M5.5,234.108v14.894c0,0.275,0.225,0.5,0.5,0.5c0.276,0,0.5-0.225,0.5-0.5v-14.894
		c-0.164,0.026-0.328,0.051-0.5,0.051C5.829,234.158,5.664,234.134,5.5,234.108z"/>
	<path fill="#2D2D2D" d="M6.5,227.893V219c0-0.276-0.224-0.5-0.5-0.5c-0.275,0-0.5,0.224-0.5,0.5v8.893
		c0.164-0.026,0.329-0.051,0.5-0.051C6.172,227.842,6.336,227.865,6.5,227.893z"/>
	<path fill="#2D2D2D" d="M17.5,240.108v8.894c0,0.275,0.225,0.5,0.5,0.5c0.276,0,0.5-0.225,0.5-0.5v-8.894
		c-0.164,0.026-0.328,0.051-0.5,0.051C17.829,240.158,17.664,240.134,17.5,240.108z"/>
	<path fill="#2D2D2D" d="M18.5,233.893V219c0-0.276-0.224-0.5-0.5-0.5c-0.275,0-0.5,0.224-0.5,0.5v14.893
		c0.164-0.026,0.329-0.051,0.5-0.051C18.172,233.842,18.336,233.865,18.5,233.893z"/>
	<path fill="#2D2D2D" d="M30.5,227.893V219c0-0.276-0.224-0.5-0.5-0.5c-0.275,0-0.5,0.224-0.5,0.5v8.893
		c0.164-0.026,0.329-0.051,0.5-0.051C30.172,227.842,30.336,227.865,30.5,227.893z"/>
	<path fill="#2D2D2D" d="M29.5,234.108v14.894c0,0.275,0.225,0.5,0.5,0.5c0.276,0,0.5-0.225,0.5-0.5v-14.894
		c-0.164,0.026-0.328,0.051-0.5,0.051C29.829,234.158,29.664,234.134,29.5,234.108z"/>
	<path fill="#2D2D2D" d="M3.842,231c0-1.021,0.709-1.868,1.658-2.095v-1.014c-1.503,0.241-2.658,1.537-2.658,3.106
		c0,1.57,1.155,2.866,2.658,3.107v-1.014C4.551,232.866,3.842,232.019,3.842,231z"/>
	<path fill="#2D2D2D" d="M6.5,227.893v1.014c0.95,0.227,1.658,1.074,1.658,2.095c0,1.019-0.708,1.866-1.658,2.094v1.014
		c1.504-0.241,2.658-1.537,2.658-3.106C9.158,229.432,8.004,228.134,6.5,227.893z"/>
	<path fill="#2D2D2D" d="M6,228.842c0.174,0,0.34,0.024,0.5,0.063v-1.014c-0.164-0.026-0.328-0.051-0.5-0.051
		c-0.171,0-0.336,0.023-0.5,0.051v1.014C5.661,228.866,5.827,228.842,6,228.842z"/>
	<path fill="#2D2D2D" d="M6,233.157c-0.173,0-0.339-0.024-0.5-0.063v1.014c0.164,0.026,0.329,0.051,0.5,0.051
		c0.172,0,0.336-0.023,0.5-0.051v-1.014C6.34,233.133,6.174,233.157,6,233.157z"/>
	<path fill="#2D2D2D" d="M27.842,231c0-1.021,0.709-1.868,1.658-2.095v-1.014c-1.503,0.241-2.658,1.537-2.658,3.106
		c0,1.57,1.155,2.866,2.658,3.107v-1.014C28.551,232.866,27.842,232.019,27.842,231z"/>
	<path fill="#2D2D2D" d="M30.5,227.893v1.014c0.949,0.227,1.658,1.074,1.658,2.095c0,1.019-0.709,1.866-1.658,2.094v1.014
		c1.504-0.241,2.658-1.537,2.658-3.106C33.158,229.432,32.004,228.134,30.5,227.893z"/>
	<path fill="#2D2D2D" d="M30,233.157c-0.173,0-0.339-0.024-0.5-0.063v1.014c0.164,0.026,0.329,0.051,0.5,0.051
		c0.172,0,0.336-0.023,0.5-0.051v-1.014C30.34,233.133,30.174,233.157,30,233.157z"/>
	<path fill="#2D2D2D" d="M30,228.842c0.174,0,0.34,0.024,0.5,0.063v-1.014c-0.164-0.026-0.328-0.051-0.5-0.051
		c-0.171,0-0.336,0.023-0.5,0.051v1.014C29.661,228.866,29.827,228.842,30,228.842z"/>
	<path fill="#2D2D2D" d="M15.842,237c0-1.021,0.709-1.868,1.658-2.095v-1.014c-1.503,0.241-2.658,1.537-2.658,3.106
		c0,1.57,1.155,2.866,2.658,3.107v-1.014C16.551,238.866,15.842,238.019,15.842,237z"/>
	<path fill="#2D2D2D" d="M18.5,233.893v1.014c0.949,0.227,1.658,1.074,1.658,2.095c0,1.019-0.709,1.866-1.658,2.094v1.014
		c1.504-0.241,2.658-1.537,2.658-3.106C21.158,235.432,20.004,234.134,18.5,233.893z"/>
	<path fill="#2D2D2D" d="M18,234.842c0.174,0,0.34,0.024,0.5,0.063v-1.014c-0.164-0.026-0.328-0.051-0.5-0.051
		c-0.171,0-0.336,0.023-0.5,0.051v1.014C17.661,234.866,17.827,234.842,18,234.842z"/>
	<path fill="#2D2D2D" d="M18,239.157c-0.173,0-0.339-0.024-0.5-0.063v1.014c0.164,0.026,0.329,0.051,0.5,0.051
		c0.172,0,0.336-0.023,0.5-0.051v-1.014C18.34,239.133,18.174,239.157,18,239.157z"/>
	<path fill="#2D2D2D" d="M5.5,271.108v13.894c0,0.275,0.225,0.5,0.5,0.5c0.276,0,0.5-0.225,0.5-0.5v-13.894
		c-0.164,0.026-0.328,0.051-0.5,0.051C5.829,271.158,5.664,271.134,5.5,271.108z"/>
	<path fill="#2D2D2D" d="M6.5,264.893V255c0-0.276-0.224-0.5-0.5-0.5c-0.275,0-0.5,0.224-0.5,0.5v9.893
		c0.164-0.026,0.329-0.051,0.5-0.051C6.172,264.842,6.336,264.865,6.5,264.893z"/>
	<path fill="#2D2D2D" d="M18.5,268.893V255c0-0.276-0.224-0.5-0.5-0.5c-0.275,0-0.5,0.224-0.5,0.5v13.893
		c0.164-0.026,0.329-0.051,0.5-0.051C18.172,268.842,18.336,268.865,18.5,268.893z"/>
	<path fill="#2D2D2D" d="M17.5,275.108v9.894c0,0.275,0.225,0.5,0.5,0.5c0.276,0,0.5-0.225,0.5-0.5v-9.894
		c-0.164,0.026-0.328,0.051-0.5,0.051C17.829,275.158,17.664,275.134,17.5,275.108z"/>
	<path fill="#2D2D2D" d="M30.5,264.893V255c0-0.276-0.224-0.5-0.5-0.5c-0.275,0-0.5,0.224-0.5,0.5v9.893
		c0.164-0.026,0.329-0.051,0.5-0.051C30.172,264.842,30.336,264.865,30.5,264.893z"/>
	<path fill="#2D2D2D" d="M29.5,271.108v13.894c0,0.275,0.225,0.5,0.5,0.5c0.276,0,0.5-0.225,0.5-0.5v-13.894
		c-0.164,0.026-0.328,0.051-0.5,0.051C29.829,271.158,29.664,271.134,29.5,271.108z"/>
	<path fill="#2D2D2D" d="M6.5,264.893v1.014c0.95,0.227,1.658,1.074,1.658,2.095c0,1.019-0.708,1.866-1.658,2.094v1.014
		c1.504-0.241,2.658-1.537,2.658-3.106C9.158,266.432,8.004,265.134,6.5,264.893z"/>
	<path fill="#2D2D2D" d="M3.842,268c0-1.021,0.709-1.868,1.658-2.095v-1.014c-1.503,0.241-2.658,1.537-2.658,3.106
		c0,1.57,1.155,2.866,2.658,3.107v-1.014C4.551,269.866,3.842,269.019,3.842,268z"/>
	<path fill="#2D2D2D" d="M6,270.157c-0.173,0-0.339-0.024-0.5-0.063v1.014c0.164,0.026,0.329,0.051,0.5,0.051
		c0.172,0,0.336-0.023,0.5-0.051v-1.014C6.34,270.133,6.174,270.157,6,270.157z"/>
	<path fill="#2D2D2D" d="M6,265.842c0.174,0,0.34,0.024,0.5,0.063v-1.014c-0.164-0.026-0.328-0.051-0.5-0.051
		c-0.171,0-0.336,0.023-0.5,0.051v1.014C5.661,265.866,5.827,265.842,6,265.842z"/>
	<path fill="#2D2D2D" d="M27.842,268c0-1.021,0.709-1.868,1.658-2.095v-1.014c-1.503,0.241-2.658,1.537-2.658,3.106
		c0,1.57,1.155,2.866,2.658,3.107v-1.014C28.551,269.866,27.842,269.019,27.842,268z"/>
	<path fill="#2D2D2D" d="M30.5,264.893v1.014c0.949,0.227,1.658,1.074,1.658,2.095c0,1.019-0.709,1.866-1.658,2.094v1.014
		c1.504-0.241,2.658-1.537,2.658-3.106C33.158,266.432,32.004,265.134,30.5,264.893z"/>
	<path fill="#2D2D2D" d="M30,265.842c0.174,0,0.34,0.024,0.5,0.063v-1.014c-0.164-0.026-0.328-0.051-0.5-0.051
		c-0.171,0-0.336,0.023-0.5,0.051v1.014C29.661,265.866,29.827,265.842,30,265.842z"/>
	<path fill="#2D2D2D" d="M30,270.157c-0.173,0-0.339-0.024-0.5-0.063v1.014c0.164,0.026,0.329,0.051,0.5,0.051
		c0.172,0,0.336-0.023,0.5-0.051v-1.014C30.34,270.133,30.174,270.157,30,270.157z"/>
	<path fill="#2D2D2D" d="M18.5,268.893v1.014c0.949,0.227,1.658,1.074,1.658,2.095c0,1.019-0.709,1.866-1.658,2.094v1.014
		c1.504-0.241,2.658-1.537,2.658-3.106C21.158,270.432,20.004,269.134,18.5,268.893z"/>
	<path fill="#2D2D2D" d="M15.842,272c0-1.021,0.709-1.868,1.658-2.095v-1.014c-1.503,0.241-2.658,1.537-2.658,3.106
		c0,1.57,1.155,2.866,2.658,3.107v-1.014C16.551,273.866,15.842,273.019,15.842,272z"/>
	<path fill="#2D2D2D" d="M18,269.842c0.174,0,0.34,0.024,0.5,0.063v-1.014c-0.164-0.026-0.328-0.051-0.5-0.051
		c-0.171,0-0.336,0.023-0.5,0.051v1.014C17.661,269.866,17.827,269.842,18,269.842z"/>
	<path fill="#2D2D2D" d="M18,274.157c-0.173,0-0.339-0.024-0.5-0.063v1.014c0.164,0.026,0.329,0.051,0.5,0.051
		c0.172,0,0.336-0.023,0.5-0.051v-1.014C18.34,274.133,18.174,274.157,18,274.157z"/>
	<path fill="#2D2D2D" d="M5.5,308.108v12.894c0,0.275,0.225,0.5,0.5,0.5c0.276,0,0.5-0.225,0.5-0.5v-12.894
		c-0.164,0.026-0.328,0.051-0.5,0.051C5.829,308.158,5.664,308.134,5.5,308.108z"/>
	<path fill="#2D2D2D" d="M6.5,301.893V291c0-0.276-0.224-0.5-0.5-0.5c-0.275,0-0.5,0.224-0.5,0.5v10.893
		c0.164-0.026,0.329-0.051,0.5-0.051C6.172,301.842,6.336,301.865,6.5,301.893z"/>
	<path fill="#2D2D2D" d="M18.5,303.893V291c0-0.276-0.224-0.5-0.5-0.5c-0.275,0-0.5,0.224-0.5,0.5v12.893
		c0.164-0.026,0.329-0.051,0.5-0.051C18.172,303.842,18.336,303.865,18.5,303.893z"/>
	<path fill="#2D2D2D" d="M17.5,310.108v10.894c0,0.275,0.225,0.5,0.5,0.5c0.276,0,0.5-0.225,0.5-0.5v-10.894
		c-0.164,0.026-0.328,0.051-0.5,0.051C17.829,310.158,17.664,310.134,17.5,310.108z"/>
	<path fill="#2D2D2D" d="M29.5,308.108v12.894c0,0.275,0.225,0.5,0.5,0.5c0.276,0,0.5-0.225,0.5-0.5v-12.894
		c-0.164,0.026-0.328,0.051-0.5,0.051C29.829,308.158,29.664,308.134,29.5,308.108z"/>
	<path fill="#2D2D2D" d="M30.5,301.893V291c0-0.276-0.224-0.5-0.5-0.5c-0.275,0-0.5,0.224-0.5,0.5v10.893
		c0.164-0.026,0.329-0.051,0.5-0.051C30.172,301.842,30.336,301.865,30.5,301.893z"/>
	<path fill="#2D2D2D" d="M6.5,301.893v1.014c0.95,0.227,1.658,1.074,1.658,2.095c0,1.019-0.708,1.866-1.658,2.094v1.014
		c1.504-0.241,2.658-1.537,2.658-3.106C9.158,303.432,8.004,302.134,6.5,301.893z"/>
	<path fill="#2D2D2D" d="M3.842,305c0-1.021,0.709-1.868,1.658-2.095v-1.014c-1.503,0.241-2.658,1.537-2.658,3.106
		c0,1.57,1.155,2.866,2.658,3.107v-1.014C4.551,306.866,3.842,306.019,3.842,305z"/>
	<path fill="#2D2D2D" d="M6,307.157c-0.173,0-0.339-0.024-0.5-0.063v1.014c0.164,0.026,0.329,0.051,0.5,0.051
		c0.172,0,0.336-0.023,0.5-0.051v-1.014C6.34,307.133,6.174,307.157,6,307.157z"/>
	<path fill="#2D2D2D" d="M6,302.842c0.174,0,0.34,0.024,0.5,0.063v-1.014c-0.164-0.026-0.328-0.051-0.5-0.051
		c-0.171,0-0.336,0.023-0.5,0.051v1.014C5.661,302.866,5.827,302.842,6,302.842z"/>
	<path fill="#2D2D2D" d="M27.842,305c0-1.021,0.709-1.868,1.658-2.095v-1.014c-1.503,0.241-2.658,1.537-2.658,3.106
		c0,1.57,1.155,2.866,2.658,3.107v-1.014C28.551,306.866,27.842,306.019,27.842,305z"/>
	<path fill="#2D2D2D" d="M30.5,301.893v1.014c0.949,0.227,1.658,1.074,1.658,2.095c0,1.019-0.709,1.866-1.658,2.094v1.014
		c1.504-0.241,2.658-1.537,2.658-3.106C33.158,303.432,32.004,302.134,30.5,301.893z"/>
	<path fill="#2D2D2D" d="M30,307.157c-0.173,0-0.339-0.024-0.5-0.063v1.014c0.164,0.026,0.329,0.051,0.5,0.051
		c0.172,0,0.336-0.023,0.5-0.051v-1.014C30.34,307.133,30.174,307.157,30,307.157z"/>
	<path fill="#2D2D2D" d="M30,302.842c0.174,0,0.34,0.024,0.5,0.063v-1.014c-0.164-0.026-0.328-0.051-0.5-0.051
		c-0.171,0-0.336,0.023-0.5,0.051v1.014C29.661,302.866,29.827,302.842,30,302.842z"/>
	<path fill="#2D2D2D" d="M15.842,307c0-1.021,0.709-1.868,1.658-2.095v-1.014c-1.503,0.241-2.658,1.537-2.658,3.106
		c0,1.57,1.155,2.866,2.658,3.107v-1.014C16.551,308.866,15.842,308.019,15.842,307z"/>
	<path fill="#2D2D2D" d="M18.5,303.893v1.014c0.949,0.227,1.658,1.074,1.658,2.095c0,1.019-0.709,1.866-1.658,2.094v1.014
		c1.504-0.241,2.658-1.537,2.658-3.106C21.158,305.432,20.004,304.134,18.5,303.893z"/>
	<path fill="#2D2D2D" d="M18,304.842c0.174,0,0.34,0.024,0.5,0.063v-1.014c-0.164-0.026-0.328-0.051-0.5-0.051
		c-0.171,0-0.336,0.023-0.5,0.051v1.014C17.661,304.866,17.827,304.842,18,304.842z"/>
	<path fill="#2D2D2D" d="M18,309.157c-0.173,0-0.339-0.024-0.5-0.063v1.014c0.164,0.026,0.329,0.051,0.5,0.051
		c0.172,0,0.336-0.023,0.5-0.051v-1.014C18.34,309.133,18.174,309.157,18,309.157z"/>
	<path fill="#2D2D2D" d="M30.5,671.893V651c0-0.276-0.224-0.5-0.5-0.5c-0.275,0-0.5,0.224-0.5,0.5v20.893
		c0.164-0.026,0.328-0.051,0.5-0.051S30.336,671.865,30.5,671.893z"/>
	<path fill="#2D2D2D" d="M29.5,678.108V681c0,0.276,0.225,0.5,0.5,0.5c0.276,0,0.5-0.224,0.5-0.5v-2.893
		c-0.164,0.026-0.328,0.051-0.5,0.051S29.664,678.134,29.5,678.108z"/>
	<path fill="#2D2D2D" d="M17.5,660.108V681c0,0.276,0.225,0.5,0.5,0.5c0.276,0,0.5-0.224,0.5-0.5v-20.893
		c-0.164,0.026-0.328,0.051-0.5,0.051C17.829,660.158,17.664,660.134,17.5,660.108z"/>
	<path fill="#2D2D2D" d="M18.5,653.893V651c0-0.276-0.224-0.5-0.5-0.5c-0.275,0-0.5,0.224-0.5,0.5v2.893
		c0.164-0.026,0.329-0.051,0.5-0.051C18.172,653.842,18.336,653.865,18.5,653.893z"/>
	<path fill="#2D2D2D" d="M6.5,671.893V651c0-0.276-0.224-0.5-0.5-0.5c-0.275,0-0.5,0.224-0.5,0.5v20.893
		c0.164-0.026,0.329-0.051,0.5-0.051C6.172,671.842,6.336,671.865,6.5,671.893z"/>
	<path fill="#2D2D2D" d="M5.5,678.108V681c0,0.276,0.225,0.5,0.5,0.5c0.276,0,0.5-0.224,0.5-0.5v-2.893
		c-0.164,0.026-0.328,0.051-0.5,0.051C5.829,678.158,5.664,678.134,5.5,678.108z"/>
	<path fill="#2D2D2D" d="M32.158,675c0,1.02-0.709,1.867-1.658,2.094v1.014c1.504-0.241,2.658-1.537,2.658-3.107
		c0-1.569-1.154-2.865-2.658-3.106v1.014C31.449,673.133,32.158,673.982,32.158,675z"/>
	<path fill="#2D2D2D" d="M29.5,678.108v-1.014c-0.949-0.227-1.658-1.074-1.658-2.094s0.709-1.867,1.658-2.095v-1.014
		c-1.503,0.241-2.658,1.537-2.658,3.106C26.842,676.569,27.997,677.865,29.5,678.108z"/>
	<path fill="#2D2D2D" d="M30,672.842c0.174,0,0.34,0.024,0.5,0.063v-1.014c-0.164-0.026-0.328-0.051-0.5-0.051
		s-0.336,0.023-0.5,0.051v1.014C29.661,672.866,29.827,672.842,30,672.842z"/>
	<path fill="#2D2D2D" d="M30,677.157c-0.173,0-0.339-0.024-0.5-0.063v1.014c0.164,0.026,0.328,0.051,0.5,0.051
		s0.336-0.023,0.5-0.051v-1.014C30.34,677.133,30.174,677.157,30,677.157z"/>
	<path fill="#2D2D2D" d="M8.158,675c0,1.02-0.709,1.867-1.658,2.094v1.014c1.504-0.241,2.658-1.537,2.658-3.107
		c0-1.569-1.154-2.865-2.658-3.106v1.014C7.449,673.133,8.158,673.982,8.158,675z"/>
	<path fill="#2D2D2D" d="M5.5,678.108v-1.014c-0.949-0.227-1.658-1.074-1.658-2.094s0.709-1.867,1.658-2.095v-1.014
		c-1.503,0.241-2.658,1.537-2.658,3.106C2.842,676.569,3.997,677.865,5.5,678.108z"/>
	<path fill="#2D2D2D" d="M6,672.842c0.174,0,0.34,0.024,0.5,0.063v-1.014c-0.164-0.026-0.328-0.051-0.5-0.051
		c-0.171,0-0.336,0.023-0.5,0.051v1.014C5.661,672.866,5.827,672.842,6,672.842z"/>
	<path fill="#2D2D2D" d="M6,677.157c-0.173,0-0.339-0.024-0.5-0.063v1.014c0.164,0.026,0.329,0.051,0.5,0.051
		c0.172,0,0.336-0.023,0.5-0.051v-1.014C6.34,677.133,6.174,677.157,6,677.157z"/>
	<path fill="#2D2D2D" d="M20.158,657c0,1.02-0.709,1.867-1.658,2.094v1.014c1.504-0.241,2.658-1.537,2.658-3.107
		c0-1.569-1.154-2.865-2.658-3.106v1.014C19.449,655.133,20.158,655.982,20.158,657z"/>
	<path fill="#2D2D2D" d="M17.5,660.108v-1.014c-0.949-0.227-1.658-1.074-1.658-2.094s0.709-1.867,1.658-2.095v-1.014
		c-1.503,0.241-2.658,1.537-2.658,3.106C14.842,658.569,15.997,659.865,17.5,660.108z"/>
	<path fill="#2D2D2D" d="M18,659.157c-0.173,0-0.339-0.024-0.5-0.063v1.014c0.164,0.026,0.329,0.051,0.5,0.051
		c0.172,0,0.336-0.023,0.5-0.051v-1.014C18.34,659.133,18.174,659.157,18,659.157z"/>
	<path fill="#2D2D2D" d="M18,654.842c0.174,0,0.34,0.024,0.5,0.063v-1.014c-0.164-0.026-0.328-0.051-0.5-0.051
		c-0.171,0-0.336,0.023-0.5,0.051v1.014C17.661,654.866,17.827,654.842,18,654.842z"/>
	<path fill="#2D2D2D" d="M29.5,641.108V645c0,0.276,0.225,0.5,0.5,0.5c0.276,0,0.5-0.224,0.5-0.5v-3.893
		c-0.164,0.026-0.328,0.051-0.5,0.051S29.664,641.134,29.5,641.108z"/>
	<path fill="#2D2D2D" d="M30.5,634.893V615c0-0.276-0.224-0.5-0.5-0.5c-0.275,0-0.5,0.224-0.5,0.5v19.893
		c0.164-0.026,0.328-0.051,0.5-0.051S30.336,634.865,30.5,634.893z"/>
	<path fill="#2D2D2D" d="M17.5,625.108V645c0,0.276,0.225,0.5,0.5,0.5c0.276,0,0.5-0.224,0.5-0.5v-19.893
		c-0.164,0.026-0.328,0.051-0.5,0.051C17.829,625.158,17.664,625.134,17.5,625.108z"/>
	<path fill="#2D2D2D" d="M18.5,618.893V615c0-0.276-0.224-0.5-0.5-0.5c-0.275,0-0.5,0.224-0.5,0.5v3.893
		c0.164-0.026,0.329-0.051,0.5-0.051C18.172,618.842,18.336,618.865,18.5,618.893z"/>
	<path fill="#2D2D2D" d="M6.5,634.893V615c0-0.276-0.224-0.5-0.5-0.5c-0.275,0-0.5,0.224-0.5,0.5v19.893
		c0.164-0.026,0.329-0.051,0.5-0.051C6.172,634.842,6.336,634.865,6.5,634.893z"/>
	<path fill="#2D2D2D" d="M5.5,641.108V645c0,0.276,0.225,0.5,0.5,0.5c0.276,0,0.5-0.224,0.5-0.5v-3.893
		c-0.164,0.026-0.328,0.051-0.5,0.051C5.829,641.158,5.664,641.134,5.5,641.108z"/>
	<path fill="#2D2D2D" d="M29.5,641.108v-1.014c-0.949-0.227-1.658-1.074-1.658-2.094s0.709-1.867,1.658-2.095v-1.014
		c-1.503,0.241-2.658,1.537-2.658,3.106C26.842,639.569,27.997,640.865,29.5,641.108z"/>
	<path fill="#2D2D2D" d="M32.158,638c0,1.02-0.709,1.867-1.658,2.094v1.014c1.504-0.241,2.658-1.537,2.658-3.107
		c0-1.569-1.154-2.865-2.658-3.106v1.014C31.449,636.133,32.158,636.982,32.158,638z"/>
	<path fill="#2D2D2D" d="M30,640.157c-0.173,0-0.339-0.024-0.5-0.063v1.014c0.164,0.026,0.328,0.051,0.5,0.051
		s0.336-0.023,0.5-0.051v-1.014C30.34,640.133,30.174,640.157,30,640.157z"/>
	<path fill="#2D2D2D" d="M30,635.842c0.174,0,0.34,0.024,0.5,0.063v-1.014c-0.164-0.026-0.328-0.051-0.5-0.051
		s-0.336,0.023-0.5,0.051v1.014C29.661,635.866,29.827,635.842,30,635.842z"/>
	<path fill="#2D2D2D" d="M5.5,641.108v-1.014c-0.949-0.227-1.658-1.074-1.658-2.094s0.709-1.867,1.658-2.095v-1.014
		c-1.503,0.241-2.658,1.537-2.658,3.106C2.842,639.569,3.997,640.865,5.5,641.108z"/>
	<path fill="#2D2D2D" d="M8.158,638c0,1.02-0.709,1.867-1.658,2.094v1.014c1.504-0.241,2.658-1.537,2.658-3.107
		c0-1.569-1.154-2.865-2.658-3.106v1.014C7.449,636.133,8.158,636.982,8.158,638z"/>
	<path fill="#2D2D2D" d="M6,640.157c-0.173,0-0.339-0.024-0.5-0.063v1.014c0.164,0.026,0.329,0.051,0.5,0.051
		c0.172,0,0.336-0.023,0.5-0.051v-1.014C6.34,640.133,6.174,640.157,6,640.157z"/>
	<path fill="#2D2D2D" d="M6,635.842c0.174,0,0.34,0.024,0.5,0.063v-1.014c-0.164-0.026-0.328-0.051-0.5-0.051
		c-0.171,0-0.336,0.023-0.5,0.051v1.014C5.661,635.866,5.827,635.842,6,635.842z"/>
	<path fill="#2D2D2D" d="M17.5,625.108v-1.014c-0.949-0.227-1.658-1.074-1.658-2.094s0.709-1.867,1.658-2.095v-1.014
		c-1.503,0.241-2.658,1.537-2.658,3.106C14.842,623.569,15.997,624.865,17.5,625.108z"/>
	<path fill="#2D2D2D" d="M20.158,622c0,1.02-0.709,1.867-1.658,2.094v1.014c1.504-0.241,2.658-1.537,2.658-3.107
		c0-1.569-1.154-2.865-2.658-3.106v1.014C19.449,620.133,20.158,620.982,20.158,622z"/>
	<path fill="#2D2D2D" d="M18,619.842c0.174,0,0.34,0.024,0.5,0.063v-1.014c-0.164-0.026-0.328-0.051-0.5-0.051
		c-0.171,0-0.336,0.023-0.5,0.051v1.014C17.661,619.866,17.827,619.842,18,619.842z"/>
	<path fill="#2D2D2D" d="M18,624.157c-0.173,0-0.339-0.024-0.5-0.063v1.014c0.164,0.026,0.329,0.051,0.5,0.051
		c0.172,0,0.336-0.023,0.5-0.051v-1.014C18.34,624.133,18.174,624.157,18,624.157z"/>
	<path fill="#2D2D2D" d="M30.5,597.893V579c0-0.276-0.224-0.5-0.5-0.5c-0.275,0-0.5,0.224-0.5,0.5v18.893
		c0.164-0.026,0.328-0.051,0.5-0.051S30.336,597.865,30.5,597.893z"/>
	<path fill="#2D2D2D" d="M29.5,604.108V609c0,0.276,0.225,0.5,0.5,0.5c0.276,0,0.5-0.224,0.5-0.5v-4.893
		c-0.164,0.026-0.328,0.051-0.5,0.051S29.664,604.134,29.5,604.108z"/>
	<path fill="#2D2D2D" d="M18.5,583.893V579c0-0.276-0.224-0.5-0.5-0.5c-0.275,0-0.5,0.224-0.5,0.5v4.893
		c0.164-0.026,0.329-0.051,0.5-0.051C18.172,583.842,18.336,583.865,18.5,583.893z"/>
	<path fill="#2D2D2D" d="M17.5,590.108V609c0,0.276,0.225,0.5,0.5,0.5c0.276,0,0.5-0.224,0.5-0.5v-18.893
		c-0.164,0.026-0.328,0.051-0.5,0.051C17.829,590.158,17.664,590.134,17.5,590.108z"/>
	<path fill="#2D2D2D" d="M5.5,604.108V609c0,0.276,0.225,0.5,0.5,0.5c0.276,0,0.5-0.224,0.5-0.5v-4.893
		c-0.164,0.026-0.328,0.051-0.5,0.051C5.829,604.158,5.664,604.134,5.5,604.108z"/>
	<path fill="#2D2D2D" d="M6.5,597.893V579c0-0.276-0.224-0.5-0.5-0.5c-0.275,0-0.5,0.224-0.5,0.5v18.893
		c0.164-0.026,0.329-0.051,0.5-0.051C6.172,597.842,6.336,597.865,6.5,597.893z"/>
	<path fill="#2D2D2D" d="M32.158,601c0,1.02-0.709,1.867-1.658,2.094v1.014c1.504-0.241,2.658-1.537,2.658-3.107
		c0-1.569-1.154-2.865-2.658-3.106v1.014C31.449,599.133,32.158,599.982,32.158,601z"/>
	<path fill="#2D2D2D" d="M29.5,604.108v-1.014c-0.949-0.227-1.658-1.074-1.658-2.094s0.709-1.867,1.658-2.095v-1.014
		c-1.503,0.241-2.658,1.537-2.658,3.106C26.842,602.569,27.997,603.865,29.5,604.108z"/>
	<path fill="#2D2D2D" d="M30,603.157c-0.173,0-0.339-0.024-0.5-0.063v1.014c0.164,0.026,0.328,0.051,0.5,0.051
		s0.336-0.023,0.5-0.051v-1.014C30.34,603.133,30.174,603.157,30,603.157z"/>
	<path fill="#2D2D2D" d="M30,598.842c0.174,0,0.34,0.024,0.5,0.063v-1.014c-0.164-0.026-0.328-0.051-0.5-0.051
		s-0.336,0.023-0.5,0.051v1.014C29.661,598.866,29.827,598.842,30,598.842z"/>
	<path fill="#2D2D2D" d="M8.158,601c0,1.02-0.709,1.867-1.658,2.094v1.014c1.504-0.241,2.658-1.537,2.658-3.107
		c0-1.569-1.154-2.865-2.658-3.106v1.014C7.449,599.133,8.158,599.982,8.158,601z"/>
	<path fill="#2D2D2D" d="M5.5,604.108v-1.014c-0.949-0.227-1.658-1.074-1.658-2.094s0.709-1.867,1.658-2.095v-1.014
		c-1.503,0.241-2.658,1.537-2.658,3.106C2.842,602.569,3.997,603.865,5.5,604.108z"/>
	<path fill="#2D2D2D" d="M6,598.842c0.174,0,0.34,0.024,0.5,0.063v-1.014c-0.164-0.026-0.328-0.051-0.5-0.051
		c-0.171,0-0.336,0.023-0.5,0.051v1.014C5.661,598.866,5.827,598.842,6,598.842z"/>
	<path fill="#2D2D2D" d="M6,603.157c-0.173,0-0.339-0.024-0.5-0.063v1.014c0.164,0.026,0.329,0.051,0.5,0.051
		c0.172,0,0.336-0.023,0.5-0.051v-1.014C6.34,603.133,6.174,603.157,6,603.157z"/>
	<path fill="#2D2D2D" d="M20.158,587c0,1.02-0.709,1.867-1.658,2.094v1.014c1.504-0.241,2.658-1.537,2.658-3.107
		c0-1.569-1.154-2.865-2.658-3.106v1.014C19.449,585.133,20.158,585.982,20.158,587z"/>
	<path fill="#2D2D2D" d="M17.5,590.108v-1.014c-0.949-0.227-1.658-1.074-1.658-2.094s0.709-1.867,1.658-2.095v-1.014
		c-1.503,0.241-2.658,1.537-2.658,3.106C14.842,588.569,15.997,589.865,17.5,590.108z"/>
	<path fill="#2D2D2D" d="M18,584.842c0.174,0,0.34,0.024,0.5,0.063v-1.014c-0.164-0.026-0.328-0.051-0.5-0.051
		c-0.171,0-0.336,0.023-0.5,0.051v1.014C17.661,584.866,17.827,584.842,18,584.842z"/>
	<path fill="#2D2D2D" d="M18,589.157c-0.173,0-0.339-0.024-0.5-0.063v1.014c0.164,0.026,0.329,0.051,0.5,0.051
		c0.172,0,0.336-0.023,0.5-0.051v-1.014C18.34,589.133,18.174,589.157,18,589.157z"/>
	<path fill="#2D2D2D" d="M29.5,567.108V573c0,0.276,0.225,0.5,0.5,0.5c0.276,0,0.5-0.224,0.5-0.5v-5.893
		c-0.164,0.026-0.328,0.051-0.5,0.051S29.664,567.134,29.5,567.108z"/>
	<path fill="#2D2D2D" d="M30.5,560.893V543c0-0.276-0.224-0.5-0.5-0.5c-0.275,0-0.5,0.224-0.5,0.5v17.893
		c0.164-0.026,0.328-0.051,0.5-0.051S30.336,560.865,30.5,560.893z"/>
	<path fill="#2D2D2D" d="M18.5,548.893V543c0-0.276-0.224-0.5-0.5-0.5c-0.275,0-0.5,0.224-0.5,0.5v5.893
		c0.164-0.026,0.329-0.051,0.5-0.051C18.172,548.842,18.336,548.865,18.5,548.893z"/>
	<path fill="#2D2D2D" d="M17.5,555.108V573c0,0.276,0.225,0.5,0.5,0.5c0.276,0,0.5-0.224,0.5-0.5v-17.893
		c-0.164,0.026-0.328,0.051-0.5,0.051C17.829,555.158,17.664,555.134,17.5,555.108z"/>
	<path fill="#2D2D2D" d="M6.5,560.893V543c0-0.276-0.224-0.5-0.5-0.5c-0.275,0-0.5,0.224-0.5,0.5v17.893
		c0.164-0.026,0.329-0.051,0.5-0.051C6.172,560.842,6.336,560.865,6.5,560.893z"/>
	<path fill="#2D2D2D" d="M5.5,567.108V573c0,0.276,0.225,0.5,0.5,0.5c0.276,0,0.5-0.224,0.5-0.5v-5.893
		c-0.164,0.026-0.328,0.051-0.5,0.051C5.829,567.158,5.664,567.134,5.5,567.108z"/>
	<path fill="#2D2D2D" d="M32.158,564c0,1.02-0.709,1.867-1.658,2.094v1.014c1.504-0.241,2.658-1.537,2.658-3.107
		c0-1.569-1.154-2.865-2.658-3.106v1.014C31.449,562.133,32.158,562.982,32.158,564z"/>
	<path fill="#2D2D2D" d="M29.5,567.108v-1.014c-0.949-0.227-1.658-1.074-1.658-2.094s0.709-1.867,1.658-2.095v-1.014
		c-1.503,0.241-2.658,1.537-2.658,3.106C26.842,565.569,27.997,566.865,29.5,567.108z"/>
	<path fill="#2D2D2D" d="M30,566.157c-0.173,0-0.339-0.024-0.5-0.063v1.014c0.164,0.026,0.328,0.051,0.5,0.051
		s0.336-0.023,0.5-0.051v-1.014C30.34,566.133,30.174,566.157,30,566.157z"/>
	<path fill="#2D2D2D" d="M30,561.842c0.174,0,0.34,0.024,0.5,0.063v-1.014c-0.164-0.026-0.328-0.051-0.5-0.051
		s-0.336,0.023-0.5,0.051v1.014C29.661,561.866,29.827,561.842,30,561.842z"/>
	<path fill="#2D2D2D" d="M5.5,567.108v-1.014c-0.949-0.227-1.658-1.074-1.658-2.094s0.709-1.867,1.658-2.095v-1.014
		c-1.503,0.241-2.658,1.537-2.658,3.106C2.842,565.569,3.997,566.865,5.5,567.108z"/>
	<path fill="#2D2D2D" d="M8.158,564c0,1.02-0.709,1.867-1.658,2.094v1.014c1.504-0.241,2.658-1.537,2.658-3.107
		c0-1.569-1.154-2.865-2.658-3.106v1.014C7.449,562.133,8.158,562.982,8.158,564z"/>
	<path fill="#2D2D2D" d="M6,561.842c0.174,0,0.34,0.024,0.5,0.063v-1.014c-0.164-0.026-0.328-0.051-0.5-0.051
		c-0.171,0-0.336,0.023-0.5,0.051v1.014C5.661,561.866,5.827,561.842,6,561.842z"/>
	<path fill="#2D2D2D" d="M6,566.157c-0.173,0-0.339-0.024-0.5-0.063v1.014c0.164,0.026,0.329,0.051,0.5,0.051
		c0.172,0,0.336-0.023,0.5-0.051v-1.014C6.34,566.133,6.174,566.157,6,566.157z"/>
	<path fill="#2D2D2D" d="M20.158,552c0,1.02-0.709,1.867-1.658,2.094v1.014c1.504-0.241,2.658-1.537,2.658-3.107
		c0-1.569-1.154-2.865-2.658-3.106v1.014C19.449,550.133,20.158,550.982,20.158,552z"/>
	<path fill="#2D2D2D" d="M17.5,555.108v-1.014c-0.949-0.227-1.658-1.074-1.658-2.094s0.709-1.867,1.658-2.095v-1.014
		c-1.503,0.241-2.658,1.537-2.658,3.106C14.842,553.569,15.997,554.865,17.5,555.108z"/>
	<path fill="#2D2D2D" d="M18,549.842c0.174,0,0.34,0.024,0.5,0.063v-1.014c-0.164-0.026-0.328-0.051-0.5-0.051
		c-0.171,0-0.336,0.023-0.5,0.051v1.014C17.661,549.866,17.827,549.842,18,549.842z"/>
	<path fill="#2D2D2D" d="M18,554.157c-0.173,0-0.339-0.024-0.5-0.063v1.014c0.164,0.026,0.329,0.051,0.5,0.051
		c0.172,0,0.336-0.023,0.5-0.051v-1.014C18.34,554.133,18.174,554.157,18,554.157z"/>
	<path fill="#2D2D2D" d="M29.5,530.108V537c0,0.276,0.225,0.5,0.5,0.5c0.276,0,0.5-0.224,0.5-0.5v-6.893
		c-0.164,0.026-0.328,0.051-0.5,0.051S29.664,530.134,29.5,530.108z"/>
	<path fill="#2D2D2D" d="M30.5,523.893V507c0-0.276-0.224-0.5-0.5-0.5c-0.275,0-0.5,0.224-0.5,0.5v16.893
		c0.164-0.026,0.328-0.051,0.5-0.051S30.336,523.865,30.5,523.893z"/>
	<path fill="#2D2D2D" d="M18.5,513.893V507c0-0.276-0.224-0.5-0.5-0.5c-0.275,0-0.5,0.224-0.5,0.5v6.893
		c0.164-0.026,0.329-0.051,0.5-0.051C18.172,513.842,18.336,513.865,18.5,513.893z"/>
	<path fill="#2D2D2D" d="M17.5,520.108V537c0,0.276,0.225,0.5,0.5,0.5c0.276,0,0.5-0.224,0.5-0.5v-16.893
		c-0.164,0.026-0.328,0.051-0.5,0.051C17.829,520.158,17.664,520.134,17.5,520.108z"/>
	<path fill="#2D2D2D" d="M5.5,530.108V537c0,0.276,0.225,0.5,0.5,0.5c0.276,0,0.5-0.224,0.5-0.5v-6.893
		c-0.164,0.026-0.328,0.051-0.5,0.051C5.829,530.158,5.664,530.134,5.5,530.108z"/>
	<path fill="#2D2D2D" d="M6.5,523.893V507c0-0.276-0.224-0.5-0.5-0.5c-0.275,0-0.5,0.224-0.5,0.5v16.893
		c0.164-0.026,0.329-0.051,0.5-0.051C6.172,523.842,6.336,523.865,6.5,523.893z"/>
	<path fill="#2D2D2D" d="M32.158,527c0,1.02-0.709,1.867-1.658,2.094v1.014c1.504-0.241,2.658-1.537,2.658-3.107
		c0-1.569-1.154-2.865-2.658-3.106v1.014C31.449,525.133,32.158,525.982,32.158,527z"/>
	<path fill="#2D2D2D" d="M29.5,530.108v-1.014c-0.949-0.227-1.658-1.074-1.658-2.094s0.709-1.867,1.658-2.095v-1.014
		c-1.503,0.241-2.658,1.537-2.658,3.106C26.842,528.569,27.997,529.865,29.5,530.108z"/>
	<path fill="#2D2D2D" d="M30,529.157c-0.173,0-0.339-0.024-0.5-0.063v1.014c0.164,0.026,0.328,0.051,0.5,0.051
		s0.336-0.023,0.5-0.051v-1.014C30.34,529.133,30.174,529.157,30,529.157z"/>
	<path fill="#2D2D2D" d="M30,524.842c0.174,0,0.34,0.024,0.5,0.063v-1.014c-0.164-0.026-0.328-0.051-0.5-0.051
		s-0.336,0.023-0.5,0.051v1.014C29.661,524.866,29.827,524.842,30,524.842z"/>
	<path fill="#2D2D2D" d="M8.158,527c0,1.02-0.709,1.867-1.658,2.094v1.014c1.504-0.241,2.658-1.537,2.658-3.107
		c0-1.569-1.154-2.865-2.658-3.106v1.014C7.449,525.133,8.158,525.982,8.158,527z"/>
	<path fill="#2D2D2D" d="M5.5,530.108v-1.014c-0.949-0.227-1.658-1.074-1.658-2.094s0.709-1.867,1.658-2.095v-1.014
		c-1.503,0.241-2.658,1.537-2.658,3.106C2.842,528.569,3.997,529.865,5.5,530.108z"/>
	<path fill="#2D2D2D" d="M6,529.157c-0.173,0-0.339-0.024-0.5-0.063v1.014c0.164,0.026,0.329,0.051,0.5,0.051
		c0.172,0,0.336-0.023,0.5-0.051v-1.014C6.34,529.133,6.174,529.157,6,529.157z"/>
	<path fill="#2D2D2D" d="M6,524.842c0.174,0,0.34,0.024,0.5,0.063v-1.014c-0.164-0.026-0.328-0.051-0.5-0.051
		c-0.171,0-0.336,0.023-0.5,0.051v1.014C5.661,524.866,5.827,524.842,6,524.842z"/>
	<path fill="#2D2D2D" d="M17.5,520.108v-1.014c-0.949-0.227-1.658-1.074-1.658-2.094s0.709-1.867,1.658-2.095v-1.014
		c-1.503,0.241-2.658,1.537-2.658,3.106C14.842,518.569,15.997,519.865,17.5,520.108z"/>
	<path fill="#2D2D2D" d="M20.158,517c0,1.02-0.709,1.867-1.658,2.094v1.014c1.504-0.241,2.658-1.537,2.658-3.107
		c0-1.569-1.154-2.865-2.658-3.106v1.014C19.449,515.133,20.158,515.982,20.158,517z"/>
	<path fill="#2D2D2D" d="M18,514.842c0.174,0,0.34,0.024,0.5,0.063v-1.014c-0.164-0.026-0.328-0.051-0.5-0.051
		c-0.171,0-0.336,0.023-0.5,0.051v1.014C17.661,514.866,17.827,514.842,18,514.842z"/>
	<path fill="#2D2D2D" d="M18,519.157c-0.173,0-0.339-0.024-0.5-0.063v1.014c0.164,0.026,0.329,0.051,0.5,0.051
		c0.172,0,0.336-0.023,0.5-0.051v-1.014C18.34,519.133,18.174,519.157,18,519.157z"/>
	<path fill="#2D2D2D" d="M30.5,486.893V471c0-0.276-0.224-0.5-0.5-0.5c-0.275,0-0.5,0.224-0.5,0.5v15.893
		c0.164-0.026,0.328-0.051,0.5-0.051S30.336,486.865,30.5,486.893z"/>
	<path fill="#2D2D2D" d="M29.5,493.108V501c0,0.276,0.225,0.5,0.5,0.5c0.276,0,0.5-0.224,0.5-0.5v-7.893
		c-0.164,0.026-0.328,0.051-0.5,0.051S29.664,493.134,29.5,493.108z"/>
	<path fill="#2D2D2D" d="M17.5,485.108V501c0,0.276,0.225,0.5,0.5,0.5c0.276,0,0.5-0.224,0.5-0.5v-15.893
		c-0.164,0.026-0.328,0.051-0.5,0.051C17.829,485.158,17.664,485.134,17.5,485.108z"/>
	<path fill="#2D2D2D" d="M18.5,478.893V471c0-0.276-0.224-0.5-0.5-0.5c-0.275,0-0.5,0.224-0.5,0.5v7.893
		c0.164-0.026,0.329-0.051,0.5-0.051C18.172,478.842,18.336,478.865,18.5,478.893z"/>
	<path fill="#2D2D2D" d="M6.5,486.893V471c0-0.276-0.224-0.5-0.5-0.5c-0.275,0-0.5,0.224-0.5,0.5v15.893
		c0.164-0.026,0.329-0.051,0.5-0.051C6.172,486.842,6.336,486.865,6.5,486.893z"/>
	<path fill="#2D2D2D" d="M5.5,493.108V501c0,0.276,0.225,0.5,0.5,0.5c0.276,0,0.5-0.224,0.5-0.5v-7.893
		c-0.164,0.026-0.328,0.051-0.5,0.051C5.829,493.158,5.664,493.134,5.5,493.108z"/>
	<path fill="#2D2D2D" d="M29.5,493.108v-1.014c-0.949-0.227-1.658-1.074-1.658-2.094s0.709-1.867,1.658-2.095v-1.014
		c-1.503,0.241-2.658,1.537-2.658,3.106C26.842,491.569,27.997,492.865,29.5,493.108z"/>
	<path fill="#2D2D2D" d="M32.158,490c0,1.02-0.709,1.867-1.658,2.094v1.014c1.504-0.241,2.658-1.537,2.658-3.107
		c0-1.569-1.154-2.865-2.658-3.106v1.014C31.449,488.133,32.158,488.982,32.158,490z"/>
	<path fill="#2D2D2D" d="M30,487.842c0.174,0,0.34,0.024,0.5,0.063v-1.014c-0.164-0.026-0.328-0.051-0.5-0.051
		s-0.336,0.023-0.5,0.051v1.014C29.661,487.866,29.827,487.842,30,487.842z"/>
	<path fill="#2D2D2D" d="M30,492.157c-0.173,0-0.339-0.024-0.5-0.063v1.014c0.164,0.026,0.328,0.051,0.5,0.051
		s0.336-0.023,0.5-0.051v-1.014C30.34,492.133,30.174,492.157,30,492.157z"/>
	<path fill="#2D2D2D" d="M8.158,490c0,1.02-0.709,1.867-1.658,2.094v1.014c1.504-0.241,2.658-1.537,2.658-3.107
		c0-1.569-1.154-2.865-2.658-3.106v1.014C7.449,488.133,8.158,488.982,8.158,490z"/>
	<path fill="#2D2D2D" d="M5.5,493.108v-1.014c-0.949-0.227-1.658-1.074-1.658-2.094s0.709-1.867,1.658-2.095v-1.014
		c-1.503,0.241-2.658,1.537-2.658,3.106C2.842,491.569,3.997,492.865,5.5,493.108z"/>
	<path fill="#2D2D2D" d="M6,492.157c-0.173,0-0.339-0.024-0.5-0.063v1.014c0.164,0.026,0.329,0.051,0.5,0.051
		c0.172,0,0.336-0.023,0.5-0.051v-1.014C6.34,492.133,6.174,492.157,6,492.157z"/>
	<path fill="#2D2D2D" d="M6,487.842c0.174,0,0.34,0.024,0.5,0.063v-1.014c-0.164-0.026-0.328-0.051-0.5-0.051
		c-0.171,0-0.336,0.023-0.5,0.051v1.014C5.661,487.866,5.827,487.842,6,487.842z"/>
	<path fill="#2D2D2D" d="M20.158,482c0,1.02-0.709,1.867-1.658,2.094v1.014c1.504-0.241,2.658-1.537,2.658-3.107
		c0-1.569-1.154-2.865-2.658-3.106v1.014C19.449,480.133,20.158,480.982,20.158,482z"/>
	<path fill="#2D2D2D" d="M17.5,485.108v-1.014c-0.949-0.227-1.658-1.074-1.658-2.094s0.709-1.867,1.658-2.095v-1.014
		c-1.503,0.241-2.658,1.537-2.658,3.106C14.842,483.569,15.997,484.865,17.5,485.108z"/>
	<path fill="#2D2D2D" d="M18,479.842c0.174,0,0.34,0.024,0.5,0.063v-1.014c-0.164-0.026-0.328-0.051-0.5-0.051
		c-0.171,0-0.336,0.023-0.5,0.051v1.014C17.661,479.866,17.827,479.842,18,479.842z"/>
	<path fill="#2D2D2D" d="M18,484.157c-0.173,0-0.339-0.024-0.5-0.063v1.014c0.164,0.026,0.329,0.051,0.5,0.051
		c0.172,0,0.336-0.023,0.5-0.051v-1.014C18.34,484.133,18.174,484.157,18,484.157z"/>
	<path fill="#2D2D2D" d="M30.5,449.893V435c0-0.276-0.224-0.5-0.5-0.5c-0.275,0-0.5,0.224-0.5,0.5v14.893
		c0.164-0.026,0.328-0.051,0.5-0.051S30.336,449.865,30.5,449.893z"/>
	<path fill="#2D2D2D" d="M29.5,456.108V465c0,0.276,0.225,0.5,0.5,0.5c0.276,0,0.5-0.224,0.5-0.5v-8.893
		c-0.164,0.026-0.328,0.051-0.5,0.051S29.664,456.134,29.5,456.108z"/>
	<path fill="#2D2D2D" d="M18.5,443.893V435c0-0.276-0.224-0.5-0.5-0.5c-0.275,0-0.5,0.224-0.5,0.5v8.893
		c0.164-0.026,0.329-0.051,0.5-0.051C18.172,443.842,18.336,443.865,18.5,443.893z"/>
	<path fill="#2D2D2D" d="M17.5,450.108V465c0,0.276,0.225,0.5,0.5,0.5c0.276,0,0.5-0.224,0.5-0.5v-14.893
		c-0.164,0.026-0.328,0.051-0.5,0.051C17.829,450.158,17.664,450.134,17.5,450.108z"/>
	<path fill="#2D2D2D" d="M6.5,449.893V435c0-0.276-0.224-0.5-0.5-0.5c-0.275,0-0.5,0.224-0.5,0.5v14.893
		c0.164-0.026,0.329-0.051,0.5-0.051C6.172,449.842,6.336,449.865,6.5,449.893z"/>
	<path fill="#2D2D2D" d="M5.5,456.108V465c0,0.276,0.225,0.5,0.5,0.5c0.276,0,0.5-0.224,0.5-0.5v-8.893
		c-0.164,0.026-0.328,0.051-0.5,0.051C5.829,456.158,5.664,456.134,5.5,456.108z"/>
	<path fill="#2D2D2D" d="M29.5,456.108v-1.014c-0.949-0.227-1.658-1.074-1.658-2.094s0.709-1.867,1.658-2.095v-1.014
		c-1.503,0.241-2.658,1.537-2.658,3.106C26.842,454.569,27.997,455.865,29.5,456.108z"/>
	<path fill="#2D2D2D" d="M32.158,453c0,1.02-0.709,1.867-1.658,2.094v1.014c1.504-0.241,2.658-1.537,2.658-3.107
		c0-1.569-1.154-2.865-2.658-3.106v1.014C31.449,451.133,32.158,451.982,32.158,453z"/>
	<path fill="#2D2D2D" d="M30,455.157c-0.173,0-0.339-0.024-0.5-0.063v1.014c0.164,0.026,0.328,0.051,0.5,0.051
		s0.336-0.023,0.5-0.051v-1.014C30.34,455.133,30.174,455.157,30,455.157z"/>
	<path fill="#2D2D2D" d="M30,450.842c0.174,0,0.34,0.024,0.5,0.063v-1.014c-0.164-0.026-0.328-0.051-0.5-0.051
		s-0.336,0.023-0.5,0.051v1.014C29.661,450.866,29.827,450.842,30,450.842z"/>
	<path fill="#2D2D2D" d="M8.158,453c0,1.02-0.709,1.867-1.658,2.094v1.014c1.504-0.241,2.658-1.537,2.658-3.107
		c0-1.569-1.154-2.865-2.658-3.106v1.014C7.449,451.133,8.158,451.982,8.158,453z"/>
	<path fill="#2D2D2D" d="M5.5,456.108v-1.014c-0.949-0.227-1.658-1.074-1.658-2.094s0.709-1.867,1.658-2.095v-1.014
		c-1.503,0.241-2.658,1.537-2.658,3.106C2.842,454.569,3.997,455.865,5.5,456.108z"/>
	<path fill="#2D2D2D" d="M6,455.157c-0.173,0-0.339-0.024-0.5-0.063v1.014c0.164,0.026,0.329,0.051,0.5,0.051
		c0.172,0,0.336-0.023,0.5-0.051v-1.014C6.34,455.133,6.174,455.157,6,455.157z"/>
	<path fill="#2D2D2D" d="M6,450.842c0.174,0,0.34,0.024,0.5,0.063v-1.014c-0.164-0.026-0.328-0.051-0.5-0.051
		c-0.171,0-0.336,0.023-0.5,0.051v1.014C5.661,450.866,5.827,450.842,6,450.842z"/>
	<path fill="#2D2D2D" d="M17.5,450.108v-1.014c-0.949-0.227-1.658-1.074-1.658-2.094s0.709-1.867,1.658-2.095v-1.014
		c-1.503,0.241-2.658,1.537-2.658,3.106C14.842,448.569,15.997,449.865,17.5,450.108z"/>
	<path fill="#2D2D2D" d="M20.158,447c0,1.02-0.709,1.867-1.658,2.094v1.014c1.504-0.241,2.658-1.537,2.658-3.107
		c0-1.569-1.154-2.865-2.658-3.106v1.014C19.449,445.133,20.158,445.982,20.158,447z"/>
	<path fill="#2D2D2D" d="M18,444.842c0.174,0,0.34,0.024,0.5,0.063v-1.014c-0.164-0.026-0.328-0.051-0.5-0.051
		c-0.171,0-0.336,0.023-0.5,0.051v1.014C17.661,444.866,17.827,444.842,18,444.842z"/>
	<path fill="#2D2D2D" d="M18,449.157c-0.173,0-0.339-0.024-0.5-0.063v1.014c0.164,0.026,0.329,0.051,0.5,0.051
		c0.172,0,0.336-0.023,0.5-0.051v-1.014C18.34,449.133,18.174,449.157,18,449.157z"/>
	<path fill="#2D2D2D" d="M30.5,412.893V399c0-0.276-0.224-0.5-0.5-0.5c-0.275,0-0.5,0.224-0.5,0.5v13.893
		c0.164-0.026,0.328-0.051,0.5-0.051S30.336,412.865,30.5,412.893z"/>
	<path fill="#2D2D2D" d="M29.5,419.108V429c0,0.276,0.225,0.5,0.5,0.5c0.276,0,0.5-0.224,0.5-0.5v-9.893
		c-0.164,0.026-0.328,0.051-0.5,0.051S29.664,419.134,29.5,419.108z"/>
	<path fill="#2D2D2D" d="M17.5,415.108V429c0,0.276,0.225,0.5,0.5,0.5c0.276,0,0.5-0.224,0.5-0.5v-13.893
		c-0.164,0.026-0.328,0.051-0.5,0.051C17.829,415.158,17.664,415.134,17.5,415.108z"/>
	<path fill="#2D2D2D" d="M18.5,408.893V399c0-0.276-0.224-0.5-0.5-0.5c-0.275,0-0.5,0.224-0.5,0.5v9.893
		c0.164-0.026,0.329-0.051,0.5-0.051C18.172,408.842,18.336,408.865,18.5,408.893z"/>
	<path fill="#2D2D2D" d="M5.5,419.108V429c0,0.276,0.225,0.5,0.5,0.5c0.276,0,0.5-0.224,0.5-0.5v-9.893
		c-0.164,0.026-0.328,0.051-0.5,0.051C5.829,419.158,5.664,419.134,5.5,419.108z"/>
	<path fill="#2D2D2D" d="M6.5,412.893V399c0-0.276-0.224-0.5-0.5-0.5c-0.275,0-0.5,0.224-0.5,0.5v13.893
		c0.164-0.026,0.329-0.051,0.5-0.051C6.172,412.842,6.336,412.865,6.5,412.893z"/>
	<path fill="#2D2D2D" d="M29.5,419.108v-1.014c-0.949-0.227-1.658-1.074-1.658-2.094s0.709-1.867,1.658-2.095v-1.014
		c-1.503,0.241-2.658,1.537-2.658,3.106C26.842,417.569,27.997,418.865,29.5,419.108z"/>
	<path fill="#2D2D2D" d="M32.158,416c0,1.02-0.709,1.867-1.658,2.094v1.014c1.504-0.241,2.658-1.537,2.658-3.107
		c0-1.569-1.154-2.865-2.658-3.106v1.014C31.449,414.133,32.158,414.982,32.158,416z"/>
	<path fill="#2D2D2D" d="M30,413.842c0.174,0,0.34,0.024,0.5,0.063v-1.014c-0.164-0.026-0.328-0.051-0.5-0.051
		s-0.336,0.023-0.5,0.051v1.014C29.661,413.866,29.827,413.842,30,413.842z"/>
	<path fill="#2D2D2D" d="M30,418.157c-0.173,0-0.339-0.024-0.5-0.063v1.014c0.164,0.026,0.328,0.051,0.5,0.051
		s0.336-0.023,0.5-0.051v-1.014C30.34,418.133,30.174,418.157,30,418.157z"/>
	<path fill="#2D2D2D" d="M5.5,419.108v-1.014c-0.949-0.227-1.658-1.074-1.658-2.094s0.709-1.867,1.658-2.095v-1.014
		c-1.503,0.241-2.658,1.537-2.658,3.106C2.842,417.569,3.997,418.865,5.5,419.108z"/>
	<path fill="#2D2D2D" d="M8.158,416c0,1.02-0.709,1.867-1.658,2.094v1.014c1.504-0.241,2.658-1.537,2.658-3.107
		c0-1.569-1.154-2.865-2.658-3.106v1.014C7.449,414.133,8.158,414.982,8.158,416z"/>
	<path fill="#2D2D2D" d="M6,418.157c-0.173,0-0.339-0.024-0.5-0.063v1.014c0.164,0.026,0.329,0.051,0.5,0.051
		c0.172,0,0.336-0.023,0.5-0.051v-1.014C6.34,418.133,6.174,418.157,6,418.157z"/>
	<path fill="#2D2D2D" d="M6,413.842c0.174,0,0.34,0.024,0.5,0.063v-1.014c-0.164-0.026-0.328-0.051-0.5-0.051
		c-0.171,0-0.336,0.023-0.5,0.051v1.014C5.661,413.866,5.827,413.842,6,413.842z"/>
	<path fill="#2D2D2D" d="M20.158,412c0,1.02-0.709,1.867-1.658,2.094v1.014c1.504-0.241,2.658-1.537,2.658-3.107
		c0-1.569-1.154-2.865-2.658-3.106v1.014C19.449,410.133,20.158,410.982,20.158,412z"/>
	<path fill="#2D2D2D" d="M17.5,415.108v-1.014c-0.949-0.227-1.658-1.074-1.658-2.094s0.709-1.867,1.658-2.095v-1.014
		c-1.503,0.241-2.658,1.537-2.658,3.106C14.842,413.569,15.997,414.865,17.5,415.108z"/>
	<path fill="#2D2D2D" d="M18,414.157c-0.173,0-0.339-0.024-0.5-0.063v1.014c0.164,0.026,0.329,0.051,0.5,0.051
		c0.172,0,0.336-0.023,0.5-0.051v-1.014C18.34,414.133,18.174,414.157,18,414.157z"/>
	<path fill="#2D2D2D" d="M18,409.842c0.174,0,0.34,0.024,0.5,0.063v-1.014c-0.164-0.026-0.328-0.051-0.5-0.051
		c-0.171,0-0.336,0.023-0.5,0.051v1.014C17.661,409.866,17.827,409.842,18,409.842z"/>
	<path fill="#2D2D2D" d="M29.5,382.108V393c0,0.276,0.225,0.5,0.5,0.5c0.276,0,0.5-0.224,0.5-0.5v-10.893
		c-0.164,0.026-0.328,0.051-0.5,0.051S29.664,382.134,29.5,382.108z"/>
	<path fill="#2D2D2D" d="M30.5,375.893V363c0-0.276-0.224-0.5-0.5-0.5c-0.275,0-0.5,0.224-0.5,0.5v12.893
		c0.164-0.026,0.328-0.051,0.5-0.051S30.336,375.865,30.5,375.893z"/>
	<path fill="#2D2D2D" d="M18.5,373.893V363c0-0.276-0.224-0.5-0.5-0.5c-0.275,0-0.5,0.224-0.5,0.5v10.893
		c0.164-0.026,0.329-0.051,0.5-0.051C18.172,373.842,18.336,373.865,18.5,373.893z"/>
	<path fill="#2D2D2D" d="M17.5,380.108V393c0,0.276,0.225,0.5,0.5,0.5c0.276,0,0.5-0.224,0.5-0.5v-12.893
		c-0.164,0.026-0.328,0.051-0.5,0.051C17.829,380.158,17.664,380.134,17.5,380.108z"/>
	<path fill="#2D2D2D" d="M5.5,382.108V393c0,0.276,0.225,0.5,0.5,0.5c0.276,0,0.5-0.224,0.5-0.5v-10.893
		c-0.164,0.026-0.328,0.051-0.5,0.051C5.829,382.158,5.664,382.134,5.5,382.108z"/>
	<path fill="#2D2D2D" d="M6.5,375.893V363c0-0.276-0.224-0.5-0.5-0.5c-0.275,0-0.5,0.224-0.5,0.5v12.893
		c0.164-0.026,0.329-0.051,0.5-0.051C6.172,375.842,6.336,375.865,6.5,375.893z"/>
	<path fill="#2D2D2D" d="M29.5,382.108v-1.014c-0.949-0.227-1.658-1.074-1.658-2.094s0.709-1.867,1.658-2.095v-1.014
		c-1.503,0.241-2.658,1.537-2.658,3.106C26.842,380.569,27.997,381.865,29.5,382.108z"/>
	<path fill="#2D2D2D" d="M32.158,379c0,1.02-0.709,1.867-1.658,2.094v1.014c1.504-0.241,2.658-1.537,2.658-3.107
		c0-1.569-1.154-2.865-2.658-3.106v1.014C31.449,377.133,32.158,377.982,32.158,379z"/>
	<path fill="#2D2D2D" d="M30,381.157c-0.173,0-0.339-0.024-0.5-0.063v1.014c0.164,0.026,0.328,0.051,0.5,0.051
		s0.336-0.023,0.5-0.051v-1.014C30.34,381.133,30.174,381.157,30,381.157z"/>
	<path fill="#2D2D2D" d="M30,376.842c0.174,0,0.34,0.024,0.5,0.063v-1.014c-0.164-0.026-0.328-0.051-0.5-0.051
		s-0.336,0.023-0.5,0.051v1.014C29.661,376.866,29.827,376.842,30,376.842z"/>
	<path fill="#2D2D2D" d="M5.5,382.108v-1.014c-0.949-0.227-1.658-1.074-1.658-2.094s0.709-1.867,1.658-2.095v-1.014
		c-1.503,0.241-2.658,1.537-2.658,3.106C2.842,380.569,3.997,381.865,5.5,382.108z"/>
	<path fill="#2D2D2D" d="M8.158,379c0,1.02-0.709,1.867-1.658,2.094v1.014c1.504-0.241,2.658-1.537,2.658-3.107
		c0-1.569-1.154-2.865-2.658-3.106v1.014C7.449,377.133,8.158,377.982,8.158,379z"/>
	<path fill="#2D2D2D" d="M6,376.842c0.174,0,0.34,0.024,0.5,0.063v-1.014c-0.164-0.026-0.328-0.051-0.5-0.051
		c-0.171,0-0.336,0.023-0.5,0.051v1.014C5.661,376.866,5.827,376.842,6,376.842z"/>
	<path fill="#2D2D2D" d="M6,381.157c-0.173,0-0.339-0.024-0.5-0.063v1.014c0.164,0.026,0.329,0.051,0.5,0.051
		c0.172,0,0.336-0.023,0.5-0.051v-1.014C6.34,381.133,6.174,381.157,6,381.157z"/>
	<path fill="#2D2D2D" d="M17.5,380.108v-1.014c-0.949-0.227-1.658-1.074-1.658-2.094s0.709-1.867,1.658-2.095v-1.014
		c-1.503,0.241-2.658,1.537-2.658,3.106C14.842,378.569,15.997,379.865,17.5,380.108z"/>
	<path fill="#2D2D2D" d="M20.158,377c0,1.02-0.709,1.867-1.658,2.094v1.014c1.504-0.241,2.658-1.537,2.658-3.107
		c0-1.569-1.154-2.865-2.658-3.106v1.014C19.449,375.133,20.158,375.982,20.158,377z"/>
	<path fill="#2D2D2D" d="M18,374.842c0.174,0,0.34,0.024,0.5,0.063v-1.014c-0.164-0.026-0.328-0.051-0.5-0.051
		c-0.171,0-0.336,0.023-0.5,0.051v1.014C17.661,374.866,17.827,374.842,18,374.842z"/>
	<path fill="#2D2D2D" d="M18,379.157c-0.173,0-0.339-0.024-0.5-0.063v1.014c0.164,0.026,0.329,0.051,0.5,0.051
		c0.172,0,0.336-0.023,0.5-0.051v-1.014C18.34,379.133,18.174,379.157,18,379.157z"/>
	<path fill="#2D2D2D" d="M5.5,345.108v11.894c0,0.275,0.225,0.5,0.5,0.5c0.276,0,0.5-0.225,0.5-0.5v-11.894
		c-0.164,0.026-0.328,0.051-0.5,0.051C5.829,345.158,5.664,345.134,5.5,345.108z"/>
	<path fill="#2D2D2D" d="M6.5,338.893V327c0-0.276-0.224-0.5-0.5-0.5c-0.275,0-0.5,0.224-0.5,0.5v11.893
		c0.164-0.026,0.329-0.051,0.5-0.051C6.172,338.842,6.336,338.865,6.5,338.893z"/>
	<path fill="#2D2D2D" d="M18.5,338.893V327c0-0.276-0.224-0.5-0.5-0.5c-0.275,0-0.5,0.224-0.5,0.5v11.893
		c0.164-0.026,0.329-0.051,0.5-0.051C18.172,338.842,18.336,338.865,18.5,338.893z"/>
	<path fill="#2D2D2D" d="M17.5,345.108v11.894c0,0.275,0.225,0.5,0.5,0.5c0.276,0,0.5-0.225,0.5-0.5v-11.894
		c-0.164,0.026-0.328,0.051-0.5,0.051C17.829,345.158,17.664,345.134,17.5,345.108z"/>
	<path fill="#2D2D2D" d="M30.5,338.893V327c0-0.276-0.224-0.5-0.5-0.5c-0.275,0-0.5,0.224-0.5,0.5v11.893
		c0.164-0.026,0.329-0.051,0.5-0.051C30.172,338.842,30.336,338.865,30.5,338.893z"/>
	<path fill="#2D2D2D" d="M29.5,345.108v11.894c0,0.275,0.225,0.5,0.5,0.5c0.276,0,0.5-0.225,0.5-0.5v-11.894
		c-0.164,0.026-0.328,0.051-0.5,0.051C29.829,345.158,29.664,345.134,29.5,345.108z"/>
	<path fill="#2D2D2D" d="M6.5,338.893v1.014c0.95,0.227,1.658,1.074,1.658,2.095c0,1.019-0.708,1.866-1.658,2.094v1.014
		c1.504-0.241,2.658-1.537,2.658-3.106C9.158,340.432,8.004,339.134,6.5,338.893z"/>
	<path fill="#2D2D2D" d="M3.842,342c0-1.021,0.709-1.868,1.658-2.095v-1.014c-1.503,0.241-2.658,1.537-2.658,3.106
		c0,1.57,1.155,2.866,2.658,3.107v-1.014C4.551,343.866,3.842,343.019,3.842,342z"/>
	<path fill="#2D2D2D" d="M6,339.842c0.174,0,0.34,0.024,0.5,0.063v-1.014c-0.164-0.026-0.328-0.051-0.5-0.051
		c-0.171,0-0.336,0.023-0.5,0.051v1.014C5.661,339.866,5.827,339.842,6,339.842z"/>
	<path fill="#2D2D2D" d="M6,344.157c-0.173,0-0.339-0.024-0.5-0.063v1.014c0.164,0.026,0.329,0.051,0.5,0.051
		c0.172,0,0.336-0.023,0.5-0.051v-1.014C6.34,344.133,6.174,344.157,6,344.157z"/>
	<path fill="#2D2D2D" d="M27.842,342c0-1.021,0.709-1.868,1.658-2.095v-1.014c-1.503,0.241-2.658,1.537-2.658,3.106
		c0,1.57,1.155,2.866,2.658,3.107v-1.014C28.551,343.866,27.842,343.019,27.842,342z"/>
	<path fill="#2D2D2D" d="M30.5,338.893v1.014c0.949,0.227,1.658,1.074,1.658,2.095c0,1.019-0.709,1.866-1.658,2.094v1.014
		c1.504-0.241,2.658-1.537,2.658-3.106C33.158,340.432,32.004,339.134,30.5,338.893z"/>
	<path fill="#2D2D2D" d="M30,339.842c0.174,0,0.34,0.024,0.5,0.063v-1.014c-0.164-0.026-0.328-0.051-0.5-0.051
		c-0.171,0-0.336,0.023-0.5,0.051v1.014C29.661,339.866,29.827,339.842,30,339.842z"/>
	<path fill="#2D2D2D" d="M30,344.157c-0.173,0-0.339-0.024-0.5-0.063v1.014c0.164,0.026,0.329,0.051,0.5,0.051
		c0.172,0,0.336-0.023,0.5-0.051v-1.014C30.34,344.133,30.174,344.157,30,344.157z"/>
	<path fill="#2D2D2D" d="M15.842,342c0-1.021,0.709-1.868,1.658-2.095v-1.014c-1.503,0.241-2.658,1.537-2.658,3.106
		c0,1.57,1.155,2.866,2.658,3.107v-1.014C16.551,343.866,15.842,343.019,15.842,342z"/>
	<path fill="#2D2D2D" d="M18.5,338.893v1.014c0.949,0.227,1.658,1.074,1.658,2.095c0,1.019-0.709,1.866-1.658,2.094v1.014
		c1.504-0.241,2.658-1.537,2.658-3.106C21.158,340.432,20.004,339.134,18.5,338.893z"/>
	<path fill="#2D2D2D" d="M18,339.842c0.174,0,0.34,0.024,0.5,0.063v-1.014c-0.164-0.026-0.328-0.051-0.5-0.051
		c-0.171,0-0.336,0.023-0.5,0.051v1.014C17.661,339.866,17.827,339.842,18,339.842z"/>
	<path fill="#2D2D2D" d="M18,344.157c-0.173,0-0.339-0.024-0.5-0.063v1.014c0.164,0.026,0.329,0.051,0.5,0.051
		c0.172,0,0.336-0.023,0.5-0.051v-1.014C18.34,344.133,18.174,344.157,18,344.157z"/>
</g>
</svg>
